<svg width="30" height="30" viewBox="0 0 25 24" fill="#575757" xmlns="http://www.w3.org/2000/svg"><g clip-path="url(#clip0_403_7507)"><path d="M8.80627 16.045C9.19002 16.2304 9.65141 16.0696 9.83681 15.6859C10.0222 15.3021 9.86143 14.8408 9.47768 14.6553C9.09393 14.4699 8.63254 14.6307 8.44713 15.0145C8.26173 15.3982 8.42252 15.8596 8.80627 16.045Z"></path><path d="M10.8577 19.5043C11.6023 19.8641 12.4977 19.5521 12.8575 18.8074C13.2173 18.0627 12.9052 17.1674 12.1606 16.8076C11.4159 16.4478 10.5205 16.7598 10.1607 17.5045C9.80096 18.2492 10.113 19.1445 10.8577 19.5043Z"></path><path d="M17.2893 11.1607L19.3994 6.79323L19.9126 7.0412C20.2759 7.2167 20.7127 7.06448 20.8882 6.70122C21.0637 6.33794 20.9115 5.90114 20.5482 5.72564C20.3761 5.64249 13.5786 2.35835 13.098 2.12616C12.7348 1.95066 12.298 2.10288 12.1225 2.46613C11.947 2.82938 12.0992 3.26618 12.4625 3.44169L12.9757 3.68965L10.8656 8.05707C4.11447 8.68303 2.28838 17.9977 8.56042 21.028C14.8408 24.0623 20.9945 16.8369 17.2893 11.1607ZM11.3619 9.48929C11.6334 9.48031 11.8774 9.32147 11.9955 9.07696L14.2912 4.32528L18.0838 6.15762L15.7881 10.9093C15.6699 11.1538 15.6972 11.4437 15.8588 11.6619C16.9996 13.2021 17.1297 14.7986 16.7689 16.1481L12.5977 14.1328C12.8785 13.46 12.5862 12.6747 11.9219 12.3537L8.24245 10.576C9.03107 9.95684 10.0619 9.5324 11.3619 9.48929ZM9.19602 19.7125C5.87547 18.1082 5.40123 14.2537 7.19247 11.6913L11.2193 13.6368C10.9385 14.3097 11.2308 15.095 11.8951 15.416L16.2097 17.5005C14.8727 19.8344 12.0148 21.0743 9.19602 19.7125Z"></path></g><defs><clipPath id="clip0_403_7507"><rect width="24" height="24" fill="white" transform="translate(0.692749)"></rect></clipPath></defs></svg>