<svg width="30" height="30" viewBox="0 0 25 24" fill="#575757" stroke="#575757" xmlns="http://www.w3.org/2000/svg"><path d="M16.9962 4.23327C17.1143 3.99673 17.4083 3.89852 17.6448 4.01661C17.8814 4.1347 17.9796 4.42871 17.8615 4.66525C17.7434 4.90179 17.4494 4.99999 17.2129 4.8819C16.9769 4.76412 16.8781 4.4698 16.9962 4.23327ZM6.91839 9.30278C6.92412 9.2868 6.92953 9.2699 6.93526 9.25391C6.94549 9.22435 6.95512 9.19448 6.96566 9.16432C6.9485 9.21077 6.93405 9.25633 6.91839 9.30278ZM20.6663 15.3966C20.5359 15.6307 20.3472 15.835 20.1748 16.0384C20.0096 16.2318 19.8336 16.4153 19.6781 16.6151C19.5286 16.8073 19.2478 16.8217 19.0436 16.7114C18.9932 16.7172 18.9443 16.7139 18.8949 16.7027C18.7051 17.0919 18.5035 17.4745 18.3047 17.8592C18.0821 18.2915 17.8685 18.7269 17.6501 19.1613C17.5387 19.3846 17.4236 19.6046 17.3142 19.8281C17.216 20.0339 17.1266 20.2433 17.035 20.4523C16.9468 20.6517 16.8558 20.8506 16.7727 21.0533C16.6947 21.2458 16.6227 21.4428 16.539 21.6331C16.4474 21.8407 16.205 21.9277 15.9926 21.8805C15.9881 21.882 15.9845 21.8862 15.98 21.8877C15.8982 21.914 15.8159 21.9204 15.7323 21.9036C15.3561 21.7753 14.9827 21.6492 14.6218 21.4826C14.2996 21.3353 13.9816 21.1766 13.6669 21.0112C13.4072 20.8732 13.2906 20.5542 13.4246 20.2856C13.4336 20.2675 13.4502 20.2555 13.4617 20.2386C13.4683 20.1981 13.4749 20.1562 13.4791 20.1176C13.4905 20.0117 13.5013 19.9056 13.5127 19.7997C13.5331 19.5913 13.5595 19.3828 13.5817 19.1753C13.6189 18.829 13.6515 18.4813 13.6809 18.1341C13.6134 18.2632 13.5495 18.3942 13.4808 18.5227C13.2567 18.946 13.0099 19.3602 12.8099 19.7971C12.6997 20.0376 12.3888 20.1303 12.1577 20.015C12.0949 19.9836 12.0436 19.9384 12.0017 19.8866C11.9428 19.8821 11.8843 19.8679 11.8294 19.8405C11.235 19.5408 10.6428 19.2368 10.0481 18.9377C9.61065 18.7163 9.17076 18.4982 8.73269 18.2795C8.29883 18.0629 7.85444 17.8674 7.41998 17.655C6.98734 17.4436 6.55831 17.2264 6.12085 17.0246C5.64718 16.8062 5.17141 16.5951 4.70979 16.351C4.54264 16.2616 4.44602 16.0897 4.44561 15.9108C4.35987 15.7715 4.33382 15.5957 4.41516 15.4449C4.62997 15.0418 4.81852 14.6263 5.01643 14.2148C5.20981 13.8108 5.39988 13.4044 5.59206 12.9999C6.01438 12.1132 6.43428 11.2253 6.88315 10.3518C6.85054 10.2903 6.83059 10.2246 6.82843 10.1549C6.80971 10.1229 6.78557 10.0943 6.77378 10.059C6.72483 9.90945 6.75099 9.78306 6.80399 9.63915C6.82446 9.58304 6.84554 9.52572 6.86511 9.4684C6.88889 9.3966 6.91328 9.32511 6.93737 9.25271C7.03823 8.96008 7.14603 8.67167 7.303 8.40404C7.46842 8.12555 7.66763 7.88354 7.91091 7.67256C8.13308 7.4812 8.3809 7.31094 8.67131 7.24561C8.92584 7.18724 9.20178 7.13731 9.4663 7.14951C9.62134 7.15756 9.76914 7.17104 9.91876 7.20956C10.0367 7.24055 10.1519 7.27547 10.2675 7.3143C10.5134 7.39408 10.7577 7.47386 10.9966 7.57656C11.1876 7.65758 11.3753 7.74674 11.5611 7.83952C11.8128 7.96514 12.0617 8.0977 12.31 8.22693C12.5498 8.35196 12.7939 8.47155 13.0377 8.59174C13.0492 8.59746 13.0606 8.60319 13.0715 8.60861C13.1615 8.37842 13.2513 8.14884 13.3467 7.91986C13.5425 7.4447 13.7111 6.96051 13.9014 6.48263C14.0845 6.02377 14.2948 5.57544 14.5153 5.13374C14.63 4.90384 14.7406 4.67334 14.8548 4.44314C14.9656 4.22109 15.0723 3.99692 15.2042 3.78541C15.3492 3.55097 15.5025 3.32225 15.6635 3.09956C15.7337 3.00119 15.8042 2.90071 15.8886 2.81319C15.9935 2.70425 16.112 2.60585 16.235 2.518C16.698 2.19288 17.2647 2.03177 17.8278 2.10412C18.0387 2.13174 18.2375 2.19405 18.4233 2.28683C18.5295 2.33985 18.6315 2.40282 18.729 2.47485C18.828 2.54687 18.9113 2.63519 18.9988 2.7211C19.1011 2.82268 19.2055 2.92155 19.2918 3.03852C19.4401 3.23538 19.5599 3.44975 19.6376 3.68527C19.7035 3.87946 19.7325 4.08394 19.7459 4.28812C19.7806 4.82105 19.5481 5.31252 19.314 5.77836C19.0757 6.25264 18.8118 6.71487 18.5603 7.18253C18.3108 7.64596 18.033 8.09372 17.7543 8.54028C17.3885 9.12353 17.0269 9.71189 16.6828 10.309C16.9761 10.4901 17.2688 10.6724 17.5648 10.8511C17.8647 11.034 18.1785 11.1936 18.4907 11.3548C18.7128 11.4687 18.9339 11.5828 19.1572 11.6973C19.3714 11.8073 19.5868 11.9163 19.7911 12.0462C20.079 12.2291 20.3587 12.4358 20.5435 12.7301C20.6123 12.8383 20.6706 12.9526 20.7292 13.0678C20.8074 13.2267 20.9052 13.3871 20.9478 13.5599C21.0355 13.9172 21.0496 14.2876 20.9515 14.6442C20.8796 14.9 20.7968 15.1639 20.6663 15.3966ZM8.33381 8.72644C8.22383 8.90295 8.12954 9.0888 8.05727 9.28489C7.98803 9.49456 7.92543 9.70603 7.85649 9.91509C8.30092 10.1754 8.74596 10.4345 9.20396 10.6722C9.45196 10.8005 9.70177 10.9253 9.95098 11.0482C10.126 11.1355 10.301 11.2229 10.4766 11.3105C10.8857 11.5178 11.2954 11.7239 11.7063 11.926C12.1504 12.1447 12.5981 12.3561 13.0416 12.576C13.458 12.7824 13.8638 13.0144 14.2762 13.2316C14.6766 13.4428 15.0833 13.6443 15.4882 13.8464C15.9172 14.0591 16.3463 14.2718 16.769 14.4956C17.1844 14.7159 17.5969 14.9421 18.0021 15.1768C18.2012 15.2913 18.3979 15.4076 18.6001 15.5161C18.7482 15.5953 18.9012 15.6664 19.0526 15.739C19.159 15.6089 19.266 15.4792 19.3727 15.3485C19.4887 15.2067 19.6093 15.0694 19.7175 14.9221C19.791 14.793 19.8509 14.6593 19.9033 14.5212C19.9416 14.3963 19.9725 14.2723 19.9906 14.1426C19.9905 14.0521 19.9859 13.9631 19.9762 13.8723C19.9478 13.7692 19.9094 13.6739 19.8626 13.5759C19.8596 13.5699 19.8566 13.5639 19.8536 13.5578C19.7908 13.4315 19.7252 13.3076 19.6419 13.1936C19.5692 13.1189 19.4916 13.0507 19.408 12.9872C19.1766 12.8407 18.9334 12.7208 18.6888 12.5964C18.407 12.4527 18.124 12.3099 17.8437 12.1617C17.2149 11.8282 16.5952 11.4826 15.9872 11.1135C15.894 11.1266 15.7969 11.1218 15.7046 11.0757C15.4759 10.9615 15.3439 10.6431 15.4816 10.4111C15.562 10.2756 15.6334 10.1341 15.7127 9.99803C16.195 9.16015 16.7178 8.34698 17.2129 7.51543C17.4789 7.06858 17.722 6.60726 17.9679 6.14806C18.2038 5.70726 18.4481 5.26615 18.6309 4.79884C18.6613 4.69567 18.6847 4.59129 18.6995 4.48482C18.6988 4.37744 18.6882 4.26887 18.6703 4.16271C18.6473 4.07284 18.6177 3.9857 18.5824 3.90096C18.5322 3.80961 18.4737 3.72308 18.4097 3.64138C18.3554 3.58562 18.2992 3.53347 18.2452 3.47861C18.1821 3.41471 18.1191 3.35231 18.0494 3.29716C17.9959 3.26522 17.941 3.2363 17.8834 3.2113C17.7977 3.18964 17.7124 3.17491 17.6252 3.16381C17.5368 3.16416 17.4491 3.17236 17.3613 3.18659C17.2594 3.21108 17.1599 3.24131 17.0628 3.28178C16.937 3.34942 16.8173 3.4261 16.7034 3.51394C16.5096 3.69684 16.3423 3.91411 16.1901 4.13287C16.0853 4.2946 15.984 4.45813 15.8979 4.63071C15.787 4.84975 15.6761 5.06879 15.5665 5.28843C15.3622 5.69754 15.1613 6.10907 14.9866 6.53143C14.6111 7.44223 14.3049 8.37712 13.9583 9.29785C13.9484 9.3238 13.9225 9.34252 13.9059 9.36665C13.9053 9.44326 13.8915 9.52079 13.8554 9.5932C13.7273 9.84965 13.4011 9.96416 13.144 9.83131C12.6543 9.57855 12.1659 9.32339 11.6828 9.06038C11.2363 8.81634 10.7964 8.55753 10.3185 8.38379C10.0464 8.2977 9.76616 8.20829 9.48232 8.1774C9.31462 8.17509 9.14573 8.19329 8.97986 8.22204C8.92618 8.23595 8.87341 8.25257 8.82124 8.27251C8.7534 8.31176 8.68919 8.35584 8.62738 8.40413C8.52218 8.50464 8.42211 8.60996 8.33381 8.72644ZM15.0845 20.5528C15.316 20.6736 15.5561 20.7754 15.7957 20.8799C15.8327 20.7876 15.8718 20.6955 15.9107 20.6041C15.9962 20.4026 16.0851 20.205 16.1712 20.0038C16.3616 19.5606 16.5806 19.1309 16.796 18.6995C17.2047 17.8761 17.6141 17.0546 17.9961 16.2186C17.7607 16.083 17.5275 15.9462 17.2928 15.8094C16.9002 15.5826 16.5053 15.3605 16.1025 15.1511C15.6792 14.93 15.2502 14.7173 14.8257 14.4986C14.4066 14.2826 13.9866 14.0684 13.5721 13.8479C13.1533 13.6238 12.7348 13.4005 12.3106 13.1903C11.4586 12.7694 10.6069 12.3465 9.75216 11.9326C9.32826 11.7263 8.89955 11.5296 8.47686 11.3223C8.21951 11.1961 7.97331 11.0521 7.72198 10.9153C7.50446 11.3208 7.28453 11.7251 7.07879 12.1372C6.8649 12.5657 6.66249 13.0013 6.45554 13.4325C6.25734 13.8461 6.05551 14.2594 5.8567 14.6743C5.7079 14.9874 5.55215 15.2994 5.40365 15.6135C5.83088 15.8403 6.26232 16.0587 6.69526 16.2741C6.757 16.1127 6.82235 15.9531 6.89072 15.7965C7.02023 15.4979 7.15125 15.1992 7.28256 14.8999C7.56749 14.2476 7.85392 13.5969 8.14005 12.9452C8.2533 12.6852 8.59256 12.5914 8.83573 12.7128C9.0958 12.8427 9.18557 13.1506 9.0681 13.4085C8.78497 14.0345 8.46775 14.6443 8.19155 15.273C8.07018 15.5524 7.95 15.8324 7.83647 16.1157C7.75697 16.3172 7.67355 16.519 7.59706 16.722C7.82726 16.8377 8.05837 16.9531 8.29098 17.0655C8.73227 16.1347 9.14128 15.1871 9.55904 14.2461C9.67289 13.9909 10.0046 13.8957 10.2454 14.0159C10.5018 14.1439 10.5919 14.4497 10.475 14.7034C10.2365 15.2265 9.98463 15.7446 9.73702 16.2632C9.54304 16.6699 9.36534 17.0832 9.18281 17.4956C9.38314 17.5911 9.58347 17.6866 9.7826 17.783C10.2155 17.9938 10.6476 18.205 11.0787 18.4165C11.4399 18.593 11.7986 18.7774 12.1651 18.943C12.3188 18.6609 12.4752 18.3809 12.6149 18.0919C12.8885 17.5274 13.159 16.9629 13.4337 16.3991C13.5475 16.1664 13.8271 16.0701 14.0648 16.1586C14.0829 16.1556 14.0983 16.1459 14.1173 16.1441C14.2014 16.1386 14.2847 16.1575 14.3595 16.1949C14.5079 16.269 14.6199 16.4161 14.6243 16.5886C14.6344 16.9503 14.6374 17.3128 14.6255 17.6747C14.6122 18.0246 14.575 18.3739 14.5453 18.7232C14.5043 19.2085 14.4512 19.6938 14.3963 20.1783C14.6238 20.3039 14.8528 20.431 15.0845 20.5528Z" stroke-width="0.431809"></path></svg>