<svg width="30" height="30" viewBox="0 0 25 24" fill="#575757" stroke="#575757" xmlns="http://www.w3.org/2000/svg"><path d="M18.5806 19.8573L17.9288 18.9829C16.3049 16.8084 15.4252 14.1682 15.4194 11.4543C15.4198 11.3461 15.3874 11.2403 15.3261 11.1511C15.265 11.0619 15.1783 10.9933 15.0772 10.9545C15.0138 10.9267 14.9454 10.912 14.8763 10.9111H13.2358V2.76325C13.2358 2.56929 13.1323 2.38993 12.9642 2.29293C12.7962 2.19581 12.5891 2.19581 12.4211 2.29293C12.253 2.38991 12.1495 2.56928 12.1495 2.76325V10.9108L10.509 10.9109C10.4399 10.9117 10.3715 10.9265 10.3081 10.9543C10.207 10.993 10.1203 11.0615 10.0591 11.1509C9.99794 11.2401 9.96548 11.3459 9.96589 11.4541C9.9603 14.168 9.08025 16.8078 7.4564 18.9825L6.80454 19.857C6.70128 19.9913 6.66909 20.1673 6.71779 20.3296C6.76266 20.4926 6.8812 20.6253 7.03819 20.6882C10.6673 22.1439 14.7182 22.1439 18.3473 20.6882C18.5043 20.6253 18.6228 20.4926 18.6677 20.3296C18.7164 20.1673 18.6839 19.9917 18.5806 19.8573ZM13.2357 11.9975H14.3438C14.36 12.3614 14.3599 13.1215 14.4033 13.4799L10.9269 13.48C10.9705 13.1216 11.025 12.3615 11.0412 11.9976L13.2357 11.9975ZM10.7477 20.613C11.2905 19.8006 11.7472 18.9339 12.1103 18.0269C12.1643 17.8931 12.1628 17.7432 12.106 17.6103C12.0493 17.4776 11.9421 17.3728 11.808 17.3194C11.6739 17.2658 11.5242 17.2677 11.3916 17.3248C11.259 17.382 11.1545 17.4896 11.1014 17.6238C10.7602 18.4752 10.3301 19.2882 9.81846 20.0496C9.75572 20.1492 9.68588 20.2622 9.61973 20.3679C9.26726 20.2757 8.45538 20.0472 8.10811 19.9278L8.3254 19.6346C9.53581 18.0166 10.3451 16.5463 10.7477 14.5661H14.5825C14.9851 16.5463 15.8492 18.0163 17.0596 19.6344L17.2769 19.9277C15.0297 20.699 13.089 21.0169 10.7477 20.613Z" stroke-width="0.5"></path></svg>