<svg width="30" height="30" viewBox="0 0 25 24" fill="#575757" stroke="#575757" xmlns="http://www.w3.org/2000/svg"><path d="M16.7352 10.2067C16.6353 10.0303 16.465 9.90484 16.2671 9.86142C16.0691 9.81799 15.8619 9.86072 15.6974 9.97904C15.6046 10.0456 15.4478 10.1613 15.2558 10.3079L15.5486 8.97318C15.5892 8.7882 15.5546 8.59482 15.4524 8.43553L14.5235 6.98433L14.9256 5.03886C15.0101 4.65381 14.7665 4.2733 14.3814 4.18885L12.2901 3.73013C11.9051 3.64568 11.5246 3.88929 11.4401 4.27434L11.0482 6.17357L7.2586 8.04548C7.06409 8.14164 6.92395 8.32085 6.87752 8.53254L5.04267 16.8978C4.95821 17.2828 5.20183 17.6634 5.58687 17.7478L12.5579 19.2769C12.943 19.3613 13.3235 19.1177 13.4079 18.7327L13.5896 17.9045C13.8523 18.0425 14.1288 18.1601 14.4322 18.2267C16.2582 18.6272 18.0693 17.4674 18.4698 15.6417C18.8269 14.0135 17.0875 10.8288 16.7352 10.2067ZM12.1372 4.42724L14.2285 4.88595L13.916 6.42315L11.8247 5.96444L12.1372 4.42724ZM12.7108 18.5797L5.73977 17.0507L7.57462 8.68545L11.6718 6.66154L13.7631 7.12026L14.8515 8.82028L14.3683 11.0234C13.3317 11.9051 12.0742 13.1546 11.8473 14.1891C11.5719 15.4446 12.0451 16.6816 12.9544 17.4693L12.7108 18.5797ZM14.5851 17.5296C13.1414 17.2129 12.2277 15.7858 12.5444 14.342C12.861 12.8983 16.1142 10.5585 16.1142 10.5585C16.1142 10.5585 18.0893 14.0451 17.7727 15.4888C17.456 16.9325 16.0288 17.8462 14.5851 17.5296Z" stroke-width="0.7"></path></svg>