<svg width="30" height="30" viewBox="0 0 25 24" fill="#575757" stroke="#575757" xmlns="http://www.w3.org/2000/svg"><path d="M14.9533 4.54867L12.6188 3.27163L13.4218 1.80157L19.6947 5.23173L18.8905 6.70037L16.5562 5.42419L16.4904 5.38823L16.4544 5.45399L15.1405 7.8546L15.1045 7.92041L15.1703 7.95641L19.1068 10.1092L18.3036 11.5784L17.569 11.1768L17.5032 11.1409L17.4672 11.2067L13.5432 18.3842L8.62021 19.827L8.5904 19.8358L8.5755 19.863L7.29872 22.1984L5.82952 21.3952L7.10629 19.0598L7.1212 19.0326L7.11246 19.0027L5.66964 14.0797L9.59361 6.90216L9.62959 6.83635L9.56378 6.80037L8.82918 6.39876L9.6324 4.92955L13.5695 7.08125L13.6353 7.11722L13.6713 7.0514L14.9832 4.65043L15.0191 4.58465L14.9533 4.54867ZM15.998 10.4034L16.034 10.3376L15.9682 10.3017L11.1646 7.67554L11.0988 7.63956L11.0628 7.70537L10.1876 9.30619L10.1517 9.37198L10.2175 9.40796L12.5532 10.6856L11.7499 12.1548L9.41452 10.8781L9.34871 10.8421L9.31273 10.9079L8.43757 12.5087L8.4016 12.5745L8.46738 12.6105L10.802 13.8875L9.99957 15.3565L7.66329 14.0799L7.59749 14.044L7.56152 14.1098L7.48663 14.2468L7.47173 14.274L7.48047 14.3038L8.5692 18.0187L8.59029 18.0907L8.66226 18.0696L12.3771 16.9808L12.4069 16.9721L12.4218 16.9448L15.998 10.4034Z" stroke="white" stroke-width="0.15"></path></svg>