<svg width="30" height="30" viewBox="0 0 25 24" fill="#575757" stroke="#575757" xmlns="http://www.w3.org/2000/svg"><path stroke="none" d="M21.7779 7.94456L15.2891 5.01095C15.1099 4.92994 14.899 5.00955 14.818 5.18871L13.4979 8.10865C13.4169 8.28781 13.4965 8.49876 13.6756 8.57978L15.1356 9.23983L11.1019 18.1618C10.678 19.0993 11.586 20.8806 11.6909 21.0806C11.7289 21.153 11.789 21.2078 11.8595 21.2396C11.93 21.2715 12.0109 21.2805 12.0903 21.2612C12.3098 21.2079 14.2468 20.7128 14.6707 19.7753L18.7044 10.8533L20.1644 11.5133C20.3435 11.5944 20.5545 11.5147 20.6355 11.3356L21.9556 8.41567C22.0366 8.23653 21.9571 8.02557 21.7779 7.94456ZM14.0218 19.4819C13.8436 19.8761 12.9253 20.2803 12.1961 20.4951C11.8758 19.8058 11.5725 18.8494 11.7508 18.4552L15.7845 9.53317L18.0555 10.5599L16.0387 15.0209L14.0218 19.4819ZM14.9115 17.5142L12.2373 17.379L12.6556 16.4539L15.3297 16.5891L14.9115 17.5142ZM20.7934 9.25784L18.7495 8.33376C18.5703 8.25275 18.3593 8.33236 18.2783 8.51152C18.1973 8.69068 18.2769 8.90163 18.4561 8.98265L20.5 9.90673L20.1333 10.7178L14.2935 8.07757L15.3202 5.8065L21.1601 8.44673L20.7934 9.25784Z"></path><path stroke="none" d="M11.9396 3.71934C11.8561 3.63943 11.739 3.60486 11.6256 3.62677C11.5121 3.64873 11.4163 3.72437 11.3687 3.82969L10.9892 4.66904L9.6915 4.08232L10.071 3.24297C10.1186 3.13765 10.1121 3.01579 10.0537 2.91608C9.99514 2.81639 9.89189 2.75135 9.77669 2.74149C8.27622 2.61392 6.85116 3.45038 6.23057 4.82303C6.14957 5.00219 6.22914 5.21315 6.40833 5.29416L7.54387 5.80755L3.51016 14.7296C3.08631 15.6671 3.99424 17.4483 4.09918 17.6483C4.13716 17.7207 4.1973 17.7755 4.2678 17.8073C4.33829 17.8392 4.41919 17.8482 4.49856 17.8289C4.71803 17.7756 6.65509 17.2806 7.07895 16.343L11.1127 7.42103L12.2482 7.93441C12.4274 8.01542 12.6383 7.93581 12.7193 7.75665C13.3399 6.38399 13.0265 4.76156 11.9396 3.71934ZM6.43007 16.0497C6.25186 16.4438 5.33356 16.848 4.60435 17.0629C4.284 16.3735 3.98076 15.4171 4.15899 15.0229L8.19273 6.1009L10.4638 7.12766L8.44692 11.5887L6.43007 16.0497ZM7.04648 4.80119C7.51297 4.04059 8.31186 3.54295 9.19364 3.45484L8.8959 4.11338C8.8149 4.29254 8.89447 4.5035 9.07366 4.58451L11.0203 5.46458C11.1995 5.5456 11.4104 5.46598 11.4914 5.28682L11.7891 4.62828C12.3055 5.34849 12.4596 6.27699 12.1967 7.12964L7.04648 4.80119Z"></path><path d="M18.0555 10.5599L15.7845 9.53317L11.7508 18.4552C11.5725 18.8494 11.8758 19.8058 12.1961 20.4951C12.9253 20.2803 13.8436 19.8761 14.0218 19.4819L16.0387 15.0209L18.0555 10.5599ZM18.0555 10.5599L17.1117 12.6477M12.9707 15.7569L13.3889 14.8318M13.7041 14.1347L14.1223 13.2096M21.7779 7.94456L15.2891 5.01095C15.1099 4.92994 14.899 5.00955 14.818 5.18871L13.4979 8.10865C13.4169 8.28781 13.4965 8.49876 13.6756 8.57978L15.1356 9.23983L11.1019 18.1618C10.678 19.0993 11.586 20.8806 11.6909 21.0806C11.7289 21.153 11.789 21.2078 11.8595 21.2396C11.93 21.2715 12.0109 21.2805 12.0903 21.2612C12.3098 21.2079 14.2468 20.7128 14.6707 19.7753L18.7044 10.8533L20.1644 11.5133C20.3435 11.5944 20.5545 11.5147 20.6355 11.3356L21.9556 8.41567C22.0366 8.23653 21.9571 8.02557 21.7779 7.94456ZM14.9115 17.5142L12.2373 17.379L12.6556 16.4539L15.3297 16.5891L14.9115 17.5142ZM20.7934 9.25784L18.7495 8.33376C18.5703 8.25275 18.3593 8.33236 18.2783 8.51152C18.1973 8.69068 18.2769 8.90163 18.4561 8.98265L20.5 9.90673L20.1333 10.7178L14.2935 8.07757L15.3202 5.8065L21.1601 8.44673L20.7934 9.25784ZM11.9396 3.71934C11.8561 3.63943 11.739 3.60486 11.6256 3.62677C11.5121 3.64873 11.4163 3.72437 11.3687 3.82969L10.9892 4.66904L9.6915 4.08232L10.071 3.24297C10.1186 3.13765 10.1121 3.01579 10.0537 2.91608C9.99514 2.81639 9.89189 2.75135 9.77669 2.74149C8.27622 2.61392 6.85116 3.45038 6.23057 4.82303C6.14957 5.00219 6.22914 5.21315 6.40833 5.29416L7.54387 5.80755L3.51016 14.7296C3.08631 15.6671 3.99424 17.4483 4.09918 17.6483C4.13716 17.7207 4.1973 17.7755 4.2678 17.8073C4.33829 17.8392 4.41919 17.8482 4.49856 17.8289C4.71803 17.7756 6.65509 17.2806 7.07895 16.343L11.1127 7.42103L12.2482 7.93441C12.4274 8.01542 12.6383 7.93581 12.7193 7.75665C13.3399 6.38399 13.0265 4.76156 11.9396 3.71934ZM6.43007 16.0497C6.25186 16.4438 5.33356 16.848 4.60435 17.0629C4.284 16.3735 3.98076 15.4171 4.15899 15.0229L8.19273 6.1009L10.4638 7.12766L8.44692 11.5887L6.43007 16.0497ZM7.04648 4.80119C7.51297 4.04059 8.31186 3.54295 9.19364 3.45484L8.8959 4.11338C8.8149 4.29254 8.89447 4.5035 9.07366 4.58451L11.0203 5.46458C11.1995 5.5456 11.4104 5.46598 11.4914 5.28682L11.7891 4.62828C12.3055 5.34849 12.4596 6.27699 12.1967 7.12964L7.04648 4.80119Z" stroke-width="0.4" fill="none"></path></svg>