<svg width="30" height="30" viewBox="0 0 25 24" fill="#575757" stroke="#575757" xmlns="http://www.w3.org/2000/svg"><path d="M18.1591 5.70821L17.3582 7.75338C17.5176 7.92854 17.6677 8.11352 17.8071 8.30664L19.9733 7.94327C20.1796 7.90867 20.3794 8.03323 20.4391 8.23373L21.2379 10.9186C21.2976 11.119 21.1984 11.3326 21.0067 11.4164L18.9941 12.2962C18.983 12.534 18.9583 12.7708 18.9206 13.0045L20.7093 14.2793C20.8796 14.4007 20.9328 14.63 20.8332 14.8139L19.4998 17.2779C19.4002 17.4619 19.179 17.5427 18.9842 17.4664L16.939 16.6652C16.7641 16.8243 16.5792 16.9743 16.386 17.1138L16.7496 19.2803C16.7843 19.4867 16.6596 19.6864 16.4592 19.746L13.7741 20.545C13.5737 20.6046 13.36 20.5055 13.2763 20.3138L12.3964 18.3009C12.1585 18.2898 11.9216 18.2653 11.6879 18.2276L10.4128 20.0168C10.2916 20.1871 10.0621 20.2404 9.87815 20.1407L7.41501 18.8065C7.23099 18.7068 7.15022 18.4858 7.22654 18.2911L8.02734 16.2461C7.86786 16.071 7.71771 15.8861 7.57831 15.693L5.41214 16.0566C5.20576 16.0912 5.00604 15.9666 4.94641 15.7661L4.14753 13.0813C4.08788 12.8808 4.18698 12.6673 4.37872 12.5834L6.39166 11.7033C6.4029 11.4651 6.42738 11.2282 6.46498 10.9947L4.67634 9.71999C4.50595 9.59856 4.45269 9.36913 4.55235 9.18525L5.88619 6.72245C5.98569 6.53855 6.20684 6.45774 6.40149 6.53393L8.44661 7.33431C8.62157 7.17509 8.80648 7.02501 8.99972 6.88549L8.63622 4.71961C8.6017 4.51328 8.72625 4.31351 8.92668 4.25388L11.6118 3.45494C11.8122 3.3953 12.0259 3.49444 12.1096 3.6862L12.9893 5.69849C13.2274 5.70967 13.4643 5.73418 13.6977 5.77189L14.9724 3.9833C15.0937 3.81295 15.3231 3.75978 15.5071 3.85933L17.9703 5.19273C18.1544 5.29226 18.2353 5.51339 18.1591 5.70821ZM15.4348 4.7625L14.2196 6.46752C14.1243 6.60129 13.9589 6.66614 13.7982 6.63282C13.4451 6.55961 13.0801 6.52176 12.7134 6.52026C12.5495 6.51954 12.4012 6.42215 12.3355 6.27185L11.4971 4.35367L9.51421 4.94366L9.86062 7.00825C9.88787 7.17007 9.81691 7.33268 9.68001 7.42283C9.37416 7.6243 9.08941 7.85547 8.83324 8.11011C8.71685 8.22589 8.54297 8.262 8.39003 8.20215L6.44056 7.43915L5.45547 9.25766L7.16056 10.4726C7.29422 10.568 7.35915 10.7331 7.32584 10.8939C7.25282 11.2474 7.21494 11.6125 7.21343 11.9792C7.21265 12.1432 7.11526 12.2914 6.96495 12.3571L5.04619 13.196L5.63611 15.1786L7.70088 14.832C7.86267 14.8049 8.02524 14.8757 8.1156 15.0128C8.31664 15.3183 8.5481 15.603 8.80301 15.859C8.91899 15.9755 8.95511 16.1494 8.89521 16.3025L8.13158 18.2522L9.95063 19.2375L11.1661 17.532C11.2613 17.3983 11.4266 17.3335 11.5875 17.3667C11.9412 17.4399 12.3062 17.4778 12.6721 17.4792C12.8361 17.4798 12.9845 17.5772 13.0501 17.7276L13.8889 19.6463L15.8717 19.0563L15.525 16.9912C15.498 16.8294 15.5687 16.6668 15.7058 16.5765C16.0119 16.3749 16.2968 16.1437 16.5524 15.8895C16.669 15.7736 16.8428 15.7375 16.9958 15.7974L18.9454 16.5612L19.9301 14.7416L18.225 13.5265C18.0913 13.4312 18.0265 13.2659 18.0597 13.1051C18.133 12.751 18.1709 12.386 18.1723 12.0204C18.173 11.8563 18.2704 11.7081 18.4207 11.6424L20.3391 10.8038L19.7492 8.82114L17.6843 9.16763C17.5225 9.19472 17.3599 9.1239 17.2696 8.98688C17.0683 8.68122 16.8371 8.39625 16.5822 8.13977C16.4665 8.02326 16.4304 7.84945 16.4902 7.69661L17.2537 5.74718L15.4348 4.7625Z" stroke-width="0.467697"></path><path d="M13.7863 15.6752C11.7599 16.2781 9.62089 15.1201 9.01795 13.0937C8.41493 11.0671 9.57286 8.92771 11.5992 8.32478C13.6256 7.72184 15.7648 8.88011 16.3678 10.9068C16.9707 12.9332 15.8128 15.0722 13.7863 15.6752ZM11.8689 9.23105C10.3423 9.68528 9.46981 11.2972 9.92417 12.8242C10.3784 14.3509 11.9901 15.2233 13.5167 14.7691C15.0435 14.3148 15.9159 12.7032 15.4616 11.1765C15.0074 9.6495 13.3957 8.77677 11.8689 9.23105Z" stroke-width="0.467697"></path></svg>