<svg width="30" height="30" viewBox="0 0 25 24" fill="#575757" xmlns="http://www.w3.org/2000/svg"><path d="M9.62713 11.0995L10.2025 11.4L10.4901 10.8494C10.7021 10.4435 10.8856 10.0923 11.5361 10.1889L13.6297 6.18114C13.6297 6.18114 13.3346 5.93292 13.2967 5.75056C13.2587 5.56849 13.2982 5.37556 13.4153 5.23071L15.4012 2.76348C15.5869 2.53298 15.9067 2.46422 16.1692 2.6013L18.3718 3.75192C18.6342 3.88901 18.7635 4.19238 18.6805 4.47652L17.7929 7.51744C17.7408 7.69629 17.6236 7.84862 17.4525 7.92143C17.2811 7.99452 16.9336 7.90707 16.9336 7.90707L14.84 11.9148C15.2909 12.3934 15.1074 12.7447 14.8953 13.1506L14.6077 13.7013L15.1337 13.976C15.4378 14.1349 15.5802 14.5231 15.4213 14.8272L11.6818 21.9857C11.523 22.2898 11.1229 22.3947 10.8188 22.2358L5.31231 19.3593C5.00821 19.2004 4.91513 18.838 5.07399 18.5339L8.8135 11.3754C8.97236 11.0713 9.32303 10.9406 9.62713 11.0995ZM17.345 4.6174L16.0453 3.93843L14.8518 5.41776L15.3063 5.65515L14.731 6.75645L14.4433 7.30711L12.7174 10.611L13.8187 11.1863L15.5446 7.88242L15.8323 7.33176L16.4076 6.23046L16.8125 6.44197L17.345 4.6174V4.6174ZM13.794 12.5753L11.5914 11.4247L11.3038 11.9753L13.5064 13.1259L13.794 12.5753V12.5753ZM6.46295 18.5585L10.8682 20.8597L14.0324 14.8026L9.62715 12.5013L6.46295 18.5585ZM11.8051 15.0409L12.9064 15.6162L10.8928 19.4708L9.79152 18.8955L11.8051 15.0409ZM9.60249 13.8903L10.7038 14.4656L8.69022 18.3202L7.58891 17.7449L9.60249 13.8903Z"></path></svg>