<svg width="30" height="30" viewBox="0 0 25 24" fill="#575757" stroke="#575757" xmlns="http://www.w3.org/2000/svg"><path d="M18.6276 4.0423H6.7572C5.60159 4.0423 4.65613 4.98775 4.65613 6.14337V14.8101C4.65613 15.9657 5.60159 16.9111 6.7572 16.9111H12.1675V18.9071H10.3815C10.0664 18.9071 9.85623 19.1172 9.85623 19.4324C9.85623 19.7475 10.0664 19.9577 10.3815 19.9577H15.0039C15.3191 19.9577 15.5293 19.7475 15.5293 19.4324C15.5293 19.1172 15.3191 18.9071 15.0039 18.9071H13.218V16.9111H18.6283C19.7839 16.9111 20.7294 15.9657 20.7294 14.8101L20.7292 6.14337C20.7292 4.93517 19.7837 4.0423 18.6281 4.0423H18.6276ZM19.6783 14.8102C19.6783 15.3879 19.2056 15.8606 18.6278 15.8606H6.75693C6.17922 15.8606 5.70649 15.3879 5.70649 14.8102L5.70631 6.14346C5.70631 5.56574 6.17904 5.09302 6.75676 5.09302H18.6277C19.2054 5.09302 19.6781 5.56574 19.6781 6.14346L19.6783 14.8102Z" stroke-width="0.7"></path></svg>