<svg width="30" height="30" viewBox="0 0 25 24" fill="#575757" xmlns="http://www.w3.org/2000/svg"><path d="M20.0628 7.39377H16.3778V5.55125C16.3778 4.53784 15.5487 3.70874 14.5352 3.70874H10.8502C9.8368 3.70874 9.0077 4.53784 9.0077 5.55125V7.39377H5.32268C4.30926 7.39377 3.48016 8.22286 3.48016 9.23628V18.4488C3.48016 19.4623 4.30926 20.2914 5.32268 20.2914H20.0628C21.0762 20.2914 21.9053 19.4623 21.9053 18.4488V9.23628C21.9053 8.22286 21.0762 7.39377 20.0628 7.39377ZM10.8502 5.55125H14.5352V7.39377H10.8502V5.55125ZM5.32268 18.4488V9.23628H20.0628V18.4488H5.32268Z"></path><path d="M13.614 11.0789H11.7715V12.9214H9.92902V14.7639H11.7715V16.6064H13.614V14.7639H15.4566V12.9214H13.614V11.0789Z"></path></svg>