<svg width="30" height="30" viewBox="0 0 25 24" fill="#575757" stroke="#575757" xmlns="http://www.w3.org/2000/svg"><path d="M21.1414 10.0291H19.6185L19.6183 9.58933C19.6183 9.38158 19.4499 9.21313 19.2422 9.21313H5.69924C5.4915 9.21313 5.32305 9.38158 5.32305 9.58933V10.0291H3.82517C3.61742 10.0291 3.44897 10.1976 3.44897 10.4053V12.3315C3.44897 12.5392 3.61742 12.7077 3.82517 12.7077H5.32305V16.7101C5.32305 18.5274 6.80163 20.0058 8.61892 20.0058H16.3246C18.1407 20.0058 19.6185 18.5274 19.6185 16.7101V12.7077H21.1414C21.3491 12.7077 21.5175 12.5392 21.5175 12.3315V10.4053C21.5175 10.1976 21.3491 10.0291 21.1414 10.0291ZM18.866 9.9655V11.7662H6.07543V9.96567L18.866 9.9655ZM4.20153 11.9553V10.7815H5.32322V11.9553H4.20153ZM18.866 16.7103C18.866 18.1127 17.7259 19.2537 16.3245 19.2537L8.61922 19.2535C7.21673 19.2535 6.07573 18.1127 6.07573 16.7102V12.3317V12.5185H18.8663L18.866 16.7103ZM20.7652 11.9553H19.6185V10.7815H20.7652V11.9553Z" stroke-width="0.5"></path><path d="M8.92479 7.66174C8.92479 7.66174 9.62114 6.87254 8.92479 5.828C8.22843 4.78347 8.92479 3.99426 8.92479 3.99426" stroke-width="1.28771" stroke-linecap="round"></path><path d="M12.4709 7.66174C12.4709 7.66174 13.1673 6.87254 12.4709 5.828C11.7746 4.78347 12.4709 3.99426 12.4709 3.99426" stroke-width="1.28771" stroke-linecap="round"></path><path d="M16.0171 7.66174C16.0171 7.66174 16.7134 6.87254 16.0171 5.828C15.3207 4.78347 16.0171 3.99426 16.0171 3.99426" stroke-width="1.28771" stroke-linecap="round"></path></svg>