<svg width="30" height="30" viewBox="0 0 25 24" fill="#575757" stroke="#575757" xmlns="http://www.w3.org/2000/svg"><path d="M21.6194 16.2601H19.7086V15.003H20.9909V12.3359L19.0843 11.6465V11.6467C18.9704 11.6059 18.8708 11.5331 18.7973 11.4371L16.9411 9.00271H10.2556L7.15286 12.1285C7.045 12.2373 6.9012 12.3027 6.74847 12.313L4.12962 12.4848V14.9989H5.82031V16.256L3.50106 16.2559C3.33431 16.2559 3.17458 16.1897 3.05664 16.0717C2.9387 15.9539 2.8725 15.7941 2.8725 15.6273V11.8938C2.87221 11.7342 2.93256 11.5804 3.04158 11.4636C3.15061 11.347 3.29981 11.2761 3.4591 11.2654L6.42783 11.0706L9.5516 7.928L9.55174 7.92785C9.67026 7.81021 9.83087 7.74474 9.99792 7.74561H17.2533C17.4495 7.74532 17.6348 7.83681 17.7539 7.99289L19.6834 10.5279L21.833 11.3072C21.9553 11.3505 22.0612 11.4304 22.1363 11.5362C22.2112 11.642 22.2517 11.7684 22.252 11.8981V15.6315C22.252 15.799 22.1852 15.9595 22.0666 16.0774C21.9477 16.1955 21.7867 16.2611 21.6194 16.2601L21.6194 16.2601Z" stroke-width="0.2"></path><path d="M9.14771 15.0027H16.1935V16.2599H9.14771V15.0027Z" stroke-width="0.2"></path><path d="M7.4357 17.8251C6.81724 17.8245 6.22418 17.5782 5.78724 17.1402C5.35027 16.7024 5.10522 16.1089 5.10608 15.4904C5.10681 14.8718 5.35321 14.2789 5.79117 13.8421C6.22916 13.4053 6.82277 13.1603 7.44124 13.1614C8.05984 13.1623 8.65275 13.4089 9.08943 13.8471C9.5261 14.2852 9.77074 14.8788 9.76958 15.4973C9.76739 16.115 9.52056 16.7067 9.08329 17.143C8.64591 17.5792 8.05345 17.8244 7.4357 17.825V17.8251ZM7.4357 14.4163C7.15116 14.4169 6.87844 14.5303 6.67735 14.7317C6.47626 14.9329 6.36315 15.2058 6.36301 15.4905C6.36286 15.775 6.47553 16.048 6.67633 16.2497C6.87713 16.4512 7.14982 16.5649 7.43438 16.5659C7.71892 16.5668 7.99219 16.4548 8.19429 16.2545C8.3964 16.0543 8.51083 15.782 8.51259 15.4973C8.51361 15.2111 8.40064 14.9362 8.19868 14.7332C7.99657 14.5303 7.72197 14.4163 7.43566 14.4163L7.4357 14.4163Z" stroke-width="0.2"></path><path d="M17.9051 17.8251C17.2865 17.8251 16.6932 17.5791 16.2558 17.1415C15.8185 16.704 15.573 16.1105 15.5733 15.4917C15.5737 14.8731 15.82 14.2799 16.2578 13.8428C16.6957 13.4057 17.2893 13.1607 17.9079 13.1614C18.5267 13.1621 19.1197 13.4086 19.5565 13.8468C19.9933 14.2849 20.2381 14.8787 20.237 15.4973C20.2348 16.1147 19.9882 16.7061 19.5513 17.1423C19.1143 17.5785 18.5226 17.8239 17.9051 17.825V17.8251ZM17.9051 14.4163C17.6204 14.4163 17.3475 14.5293 17.1459 14.7304C16.9444 14.9315 16.831 15.2043 16.8304 15.489C16.8298 15.7737 16.9422 16.047 17.143 16.2489C17.3437 16.4507 17.6163 16.5647 17.901 16.5659C18.1857 16.5669 18.4592 16.4551 18.6614 16.2548C18.8637 16.0544 18.9782 15.782 18.98 15.4973C18.981 15.2115 18.8683 14.9367 18.6667 14.7339C18.4651 14.5312 18.1911 14.4169 17.9051 14.4163L17.9051 14.4163Z" stroke-width="0.2"></path></svg>