<svg width="30" height="30" viewBox="0 0 25 24" fill="#575757" stroke="#575757" xmlns="http://www.w3.org/2000/svg"><path d="M19.0762 9.97227C19.8658 9.34861 20.2625 8.35106 20.1171 7.35547C19.9716 6.36003 19.3061 5.5176 18.3712 5.14583C17.4364 4.77407 16.3741 4.92919 15.5848 5.55286L14.5946 6.33518L14.213 5.85222C13.9768 5.55551 13.633 5.36435 13.2564 5.32017C12.8799 5.27602 12.5012 5.38247 12.2027 5.61646L10.7391 6.82186C9.15374 6.04563 7.30092 6.03514 5.70698 6.7934C4.11298 7.5515 2.95195 8.99548 2.55371 10.7152C2.15563 12.4349 2.56375 14.2423 3.66228 15.6237C4.76095 17.0053 6.42977 17.8102 8.19489 17.8098C9.96 17.8094 11.6285 17.0036 12.7264 15.6215C13.8242 14.2394 14.2315 12.4317 13.8325 10.7122L15.2961 9.5068C15.5928 9.2706 15.7841 8.92682 15.8283 8.55033C15.8725 8.1737 15.7659 7.79498 15.5319 7.49653L15.1503 7.01358L16.1405 6.23127C16.5439 5.91251 17.0576 5.76703 17.5684 5.82694C18.0791 5.88683 18.5452 6.14722 18.8639 6.55066C19.1828 6.95429 19.3281 7.46794 19.2682 7.97859C19.2083 8.4894 18.9481 8.95535 18.5445 9.27422L17.6751 9.9611C17.104 10.4155 16.7358 11.0772 16.6508 11.802C16.5658 12.5269 16.7708 13.2559 17.2213 13.8301L17.9082 14.6995C18.0653 14.8487 18.308 14.8599 18.478 14.7257C18.648 14.5914 18.6935 14.3524 18.5844 14.1652L17.8975 13.2958C17.5929 12.9035 17.4547 12.4074 17.5126 11.9141C17.5704 11.4207 17.8198 10.97 18.207 10.6588L19.0762 9.97227ZM11.256 15.8664C10.3201 16.609 9.14582 16.9856 7.95267 16.9258C6.75937 16.8659 5.6287 16.3738 4.77182 15.5413C3.91488 14.709 3.39024 13.593 3.29573 12.402C3.2014 11.211 3.54377 10.0264 4.25884 9.06931C4.97406 8.11228 6.01306 7.4482 7.18194 7.20119C8.35085 6.95417 9.56974 7.14114 10.611 7.727C12.0385 8.53042 12.9726 9.99175 13.102 11.6248C13.2313 13.2579 12.5392 14.8482 11.256 15.8664ZM14.7593 8.85245L13.5614 9.84797L13.5664 9.8047L13.4455 9.52761L13.4123 9.43614L13.2533 9.11073L13.2151 9.06239L13.0485 8.8018L12.9913 8.72937L12.7434 8.41539L12.4572 8.05321L12.2422 7.83082L12.204 7.78247L11.9243 7.55249L11.8429 7.49908L11.6229 7.31982L11.5579 7.3122L12.7559 6.31667C12.8723 6.22853 13.0183 6.18895 13.1634 6.20596C13.3084 6.22297 13.4413 6.29526 13.5342 6.40795L14.8507 8.07433C14.9328 8.18882 14.969 8.32986 14.9526 8.46978C14.9362 8.6097 14.8682 8.73837 14.7618 8.8309L14.7593 8.85245Z" stroke-width="0.774119"></path><path d="M21.077 16.715L20.2936 15.9316C20.1202 15.8016 19.8778 15.8188 19.7246 15.9719C19.5714 16.1251 19.5542 16.3676 19.6842 16.5409L20.4676 17.3244C20.6409 17.4543 20.8833 17.437 21.0365 17.2839C21.1897 17.1307 21.207 16.8882 21.077 16.715L21.077 16.715Z" stroke-width="0.774119"></path><path d="M22.731 14.7563C22.8022 14.528 22.6759 14.2851 22.4481 14.2123L21.2511 13.8423H21.2512C21.136 13.7895 21.0036 13.7895 20.8884 13.8422C20.7732 13.895 20.6868 13.9952 20.6516 14.1169C20.6164 14.2385 20.6358 14.3695 20.705 14.4757C20.7742 14.5818 20.8863 14.6525 21.0118 14.6694L22.2088 15.0393H22.3394C22.515 15.0328 22.6696 14.9212 22.731 14.7563L22.731 14.7563Z" stroke-width="0.774119"></path><path d="M17.8997 16.9544C17.672 17.0273 17.5457 17.2702 17.6167 17.4985L17.9867 18.6955L17.9868 18.6954C18.0436 18.8762 18.2107 18.9993 18.4002 19H18.5309C18.7586 18.9272 18.8849 18.6843 18.8137 18.456L18.4438 17.259V17.2591C18.4134 17.1456 18.3384 17.0493 18.2361 16.9919C18.1336 16.9345 18.0123 16.921 17.8997 16.9544L17.8997 16.9544Z" stroke-width="0.774119"></path></svg>