<svg width="30" height="30" viewBox="0 0 25 24" fill="#575757" xmlns="http://www.w3.org/2000/svg"><path d="M21.9611 9.11454L19.457 4.47087C19.3277 4.23158 19.0417 4.07959 18.7282 4.07959L6.23139 4.07959C5.91397 4.07959 5.6279 4.23158 5.5025 4.47087L2.95142 9.19215C2.95142 9.19538 2.75549 9.52846 3.03763 9.85183L11.8351 19.6501C12.325 20.1287 12.9481 19.87 13.1205 19.6501L21.8631 9.91327C22.0238 9.79686 22.208 9.45731 21.9611 9.11454ZM20.0448 8.80086H15.7421L16.5376 5.39896H18.207L20.0448 8.80086ZM11.1533 10.1202H13.8023L12.4778 15.7793L11.1533 10.1202V10.1202ZM10.8437 8.80086L10.0482 5.39896L14.9074 5.39896L14.1119 8.80086H10.8437V8.80086ZM6.74865 5.39896H8.41803L9.21353 8.80086H4.91078L6.74865 5.39896ZM9.5231 10.1202L11.024 16.5295L5.26738 10.1202H9.5231ZM13.9317 16.5328L15.4325 10.1235H19.6882L13.9317 16.5328Z"></path></svg>