<svg width="30" height="30" viewBox="0 0 25 24" fill="#575757" stroke="#575757" xmlns="http://www.w3.org/2000/svg"><path d="M6.94877 16.5347L10.2204 18.7649L9.87348 19.2738L6.60183 17.0436L6.94877 16.5347ZM20.561 2.97129L19.3798 5.09472L19.3054 5.20376L18.1986 6.04646C18.0524 6.15761 18.0282 6.07871 17.8928 6.10434L14.5225 11.0484C16.1439 12.2705 16.2396 14.5025 14.8269 15.8351L14.5866 16.0705C14.2605 16.3535 14.0968 16.8283 14.1836 17.2867C14.5572 18.9256 13.8818 20.5416 12.511 21.4977C10.9667 22.5047 9.25829 22.3792 7.97795 21.4691L5.28177 19.6048C3.90029 18.663 3.24586 17.0457 3.62905 15.39C3.98178 13.7401 5.24464 12.5511 6.90696 12.2999C7.34067 12.2494 7.72233 11.9238 7.86699 11.5165L7.9983 11.2068C8.70007 9.36733 10.8744 8.67047 12.5346 9.74648L15.9049 4.80246C15.8571 4.71655 15.809 4.63067 15.8529 4.52741L16.2327 3.18912C16.2575 3.15286 16.2516 3.12215 16.3071 3.08008L17.8519 1.20455C17.9567 1.08973 18.1403 1.05499 18.2551 1.15981L20.4364 2.64679C20.6007 2.67887 20.6295 2.83154 20.561 2.97128L20.561 2.97129ZM12.4771 12.9553L17.3838 5.75737L16.4387 5.11309L11.532 12.311C11.9276 12.3943 12.255 12.6174 12.4771 12.9553V12.9553ZM10.7818 12.8645C10.1093 12.9918 9.66334 13.646 9.79063 14.3185C9.91791 14.991 10.5721 15.4369 11.2446 15.3096C11.9171 15.1824 12.3631 14.5281 12.2358 13.8557C12.1088 13.1834 11.4543 12.7372 10.7818 12.8645ZM14.1757 11.5573L12.8126 13.5566L12.8473 13.7399C13.0382 14.7486 12.3691 15.7303 11.3603 15.9212C10.3516 16.1122 9.36995 15.443 9.17901 14.4343C8.98808 13.4255 9.65721 12.4439 10.666 12.253L10.8494 12.2182L12.2124 10.2188C10.868 9.36097 9.15322 9.98634 8.60622 11.408L8.47516 11.7179C8.24303 12.3317 7.67048 12.8202 7.0171 12.8805C5.63585 13.1103 4.55764 14.1059 4.25058 15.4941C3.94344 16.8818 4.48469 18.2361 5.65368 19.0598L8.34387 20.8937C9.50722 21.6863 10.9958 21.6899 12.1757 20.8966C13.3554 20.1034 13.9186 18.7302 13.5915 17.3358C13.4642 16.6633 13.6847 15.9883 14.171 15.548L14.4113 15.3126C15.5263 14.2907 15.495 12.5168 14.1756 11.5573L14.1757 11.5573ZM19.8597 2.94576L18.1511 1.78103L16.841 3.3906L16.5371 4.46144L17.9911 5.45261L18.8767 4.77832L19.8597 2.94576Z" stroke-width="0.746977"></path></svg>