<svg width="30" height="30" viewBox="0 0 25 24" fill="#575757" stroke="#575757" xmlns="http://www.w3.org/2000/svg"><path d="M11.7029 3.27521L11.6995 3.28533C9.50538 2.67135 7.54743 3.03329 7.03976 4.15701L7.0271 4.15284L3.30642 15.4478C3.29675 15.4772 3.2912 15.5068 3.28854 15.5361C3.01386 16.7221 4.66563 18.3642 6.91891 19.1064C8.56475 19.6486 10.2367 19.6127 11.2097 19.1201L16.9511 21.0114L21.7079 6.57097L11.7029 3.27521ZM20.6744 7.09189L16.4295 19.9782L11.9159 18.4913C11.933 18.4597 11.9458 18.426 11.9602 18.3927C11.9755 18.3675 11.9886 18.3404 11.9983 18.311L15.719 7.01598L15.7063 7.01181C15.8268 6.45033 15.5969 5.83541 15.1001 5.25569L20.6744 7.09189ZM9.81106 18.6594C9.10792 18.7323 8.19461 18.6653 7.1746 18.3293C5.00899 17.6159 3.93607 16.2137 4.08498 15.7042L4.08345 15.7037L7.31741 5.88627C7.84803 6.6652 8.86722 7.40774 10.1773 7.90619C10.3037 7.95415 10.4312 8.00105 10.5625 8.0443C10.6938 8.08755 10.8242 8.12562 10.9544 8.16216C12.3043 8.53994 13.5652 8.54849 14.4549 8.23742L11.2209 18.0549L11.2194 18.0544C11.1984 18.1114 11.1582 18.168 11.0997 18.2228C10.993 18.3222 10.8256 18.4149 10.6085 18.4916C10.391 18.5683 10.1214 18.6273 9.81106 18.6594ZM11.4438 4.06162C11.5727 4.0975 11.7034 4.13677 11.8354 4.18026C11.9674 4.22374 12.0959 4.26982 12.2209 4.3176C13.9577 4.98532 14.9772 6.05765 14.9243 6.75399C14.92 6.80431 14.911 6.85302 14.8958 6.89906C14.8687 6.98142 14.8199 7.05814 14.7564 7.12931C14.6557 7.24238 14.5104 7.33977 14.3286 7.4191C13.6726 7.70548 12.5347 7.75122 11.21 7.38552C11.0809 7.35003 10.9504 7.31039 10.8184 7.26689C10.6862 7.22336 10.5578 7.17729 10.4329 7.12955C9.15049 6.63643 8.26227 5.92325 7.90491 5.30306C7.80588 5.13124 7.74693 4.96687 7.73315 4.8158C7.72434 4.72053 7.73069 4.63005 7.75781 4.54774C7.77298 4.50169 7.7943 4.45698 7.82126 4.41418C8.19291 3.82283 9.65017 3.56638 11.4438 4.06162Z" stroke-width="0.893553"></path></svg>