<svg width="30" height="30" viewBox="0 0 25 24" fill="#575757" stroke="#575757" xmlns="http://www.w3.org/2000/svg"><path stroke="none" d="M10.3686 19.3178C10.3686 19.6097 10.1319 19.8464 9.83997 19.8464H4.37757C4.08562 19.8464 3.84894 19.6097 3.84894 19.3178C3.84894 19.0259 4.08562 18.7892 4.37757 18.7892H9.83997C10.1319 18.7892 10.3686 19.0259 10.3686 19.3178ZM21.1176 5.83895C21.1176 6.71258 20.7793 7.53191 20.1652 8.14605C20.0161 8.29514 19.7463 8.46795 19.1989 8.81371C18.169 9.46422 16.4963 10.5208 14.9191 12.0092L16.2854 13.3753C16.6857 13.7755 16.9061 14.3094 16.9061 14.8784C16.9061 15.4474 16.6856 15.9812 16.2853 16.3815L16.1689 16.498V16.498C15.4042 17.2625 14.2291 17.3727 13.3463 16.8282L12.1814 17.993C12.0781 18.0961 11.9428 18.1478 11.8076 18.1478C11.6723 18.1478 11.537 18.0962 11.4338 17.993L5.70183 12.2619C5.6027 12.1628 5.54698 12.0283 5.54698 11.8881C5.54698 11.7479 5.60266 11.6135 5.70183 11.5143L6.86662 10.3497C6.64608 9.99244 6.52816 9.57927 6.52816 9.14725C6.52819 8.5341 6.76572 7.9589 7.19705 7.52761L7.31374 7.41101C8.1426 6.58227 9.49125 6.5822 10.3202 7.41101L11.6865 8.7771C13.1754 7.19989 14.232 5.52751 14.8827 4.4977C15.2284 3.95051 15.4012 3.68087 15.5503 3.53181C16.8226 2.25966 18.8928 2.25966 20.1651 3.53181C20.7793 4.14595 21.1176 4.96531 21.1176 5.83895ZM12.5551 16.1242L7.57083 11.1407L6.82324 11.8881L11.8075 16.8717L12.5551 16.1242ZM9.57259 8.15856C9.36431 7.95026 9.09062 7.8461 8.817 7.8461C8.5433 7.8461 8.26968 7.95026 8.0613 8.15859L7.94461 8.27523C7.71303 8.50675 7.58549 8.8165 7.58546 9.14728C7.58546 9.47807 7.713 9.78774 7.94461 10.0193L13.6766 15.7505C14.1575 16.2314 14.94 16.2314 15.421 15.7506L15.5376 15.634C15.7383 15.4333 15.8488 15.165 15.8488 14.8784C15.8488 14.5917 15.7384 14.3234 15.5378 14.1229L9.57259 8.15856ZM20.0603 5.83895C20.0603 5.24768 19.8321 4.6938 19.4176 4.27936C18.5575 3.4194 17.158 3.4194 16.2979 4.27936C16.2222 4.35695 15.9854 4.73168 15.7765 5.06236C15.1016 6.13058 14.0039 7.86795 12.4344 9.52497L14.1711 11.2614C15.8283 9.69232 17.5659 8.59481 18.6343 7.91999C18.9651 7.71106 19.3399 7.47426 19.4178 7.39836C19.832 6.98406 20.0603 6.43021 20.0603 5.83895Z"></path><path d="M16.1689 16.498L16.2853 16.3815C16.6856 15.9812 16.9061 15.4474 16.9061 14.8784C16.9061 14.3094 16.6857 13.7755 16.2854 13.3753L14.9191 12.0092C16.4963 10.5208 18.169 9.46422 19.1989 8.81371C19.7463 8.46795 20.0161 8.29514 20.1652 8.14605C20.7793 7.53191 21.1176 6.71258 21.1176 5.83895C21.1176 4.96531 20.7793 4.14595 20.1651 3.53181C18.8928 2.25966 16.8226 2.25966 15.5503 3.53181C15.4012 3.68087 15.2284 3.95051 14.8827 4.4977C14.232 5.52751 13.1754 7.19989 11.6865 8.7771L10.3202 7.41101C9.49125 6.5822 8.1426 6.58227 7.31374 7.41101L7.19705 7.52761C6.76572 7.9589 6.52819 8.5341 6.52816 9.14725C6.52816 9.57927 6.64608 9.99244 6.86662 10.3497L5.70183 11.5143C5.60266 11.6135 5.54698 11.7479 5.54698 11.8881C5.54698 12.0283 5.6027 12.1628 5.70183 12.2619L11.4338 17.993C11.537 18.0962 11.6723 18.1478 11.8076 18.1478C11.9428 18.1478 12.0781 18.0961 12.1814 17.993L13.3463 16.8282C14.2291 17.3727 15.4042 17.2625 16.1689 16.498ZM16.1689 16.498V16.498ZM10.3686 19.3178C10.3686 19.6097 10.1319 19.8464 9.83997 19.8464H4.37757C4.08562 19.8464 3.84894 19.6097 3.84894 19.3178C3.84894 19.0259 4.08562 18.7892 4.37757 18.7892H9.83997C10.1319 18.7892 10.3686 19.0259 10.3686 19.3178ZM12.5551 16.1242L7.57083 11.1407L6.82324 11.8881L11.8075 16.8717L12.5551 16.1242ZM9.57259 8.15856C9.36431 7.95026 9.09062 7.8461 8.817 7.8461C8.5433 7.8461 8.26968 7.95026 8.0613 8.15859L7.94461 8.27523C7.71303 8.50675 7.58549 8.8165 7.58546 9.14728C7.58546 9.47807 7.713 9.78774 7.94461 10.0193L13.6766 15.7505C14.1575 16.2314 14.94 16.2314 15.421 15.7506L15.5376 15.634C15.7383 15.4333 15.8488 15.165 15.8488 14.8784C15.8488 14.5917 15.7384 14.3234 15.5378 14.1229L9.57259 8.15856ZM20.0603 5.83895C20.0603 5.24768 19.8321 4.6938 19.4176 4.27936C18.5575 3.4194 17.158 3.4194 16.2979 4.27936C16.2222 4.35695 15.9854 4.73168 15.7765 5.06236C15.1016 6.13058 14.0039 7.86795 12.4344 9.52497L14.1711 11.2614C15.8283 9.69232 17.5659 8.59481 18.6343 7.91999C18.9651 7.71106 19.3399 7.47426 19.4178 7.39836C19.832 6.98406 20.0603 6.43021 20.0603 5.83895Z" stroke-width="0.5" fill="none"></path></svg>