<svg width="30" height="30" viewBox="0 0 25 24" fill="#575757" stroke="#575757" xmlns="http://www.w3.org/2000/svg"><path fill-rule="evenodd" clip-rule="evenodd" d="M15.863 9.38191L10.4395 7.21287C10.316 7.16308 10.1756 7.1757 10.0625 7.24639C9.94906 7.3168 9.87655 7.43742 9.86645 7.57024C9.77178 8.83367 9.32647 9.70154 8.5688 10.1129C7.81885 10.5201 6.80144 10.4741 5.60885 10.0086C5.28837 9.59101 4.74206 9.40294 4.22524 9.54613C3.6593 9.7028 3.26758 10.2177 3.26758 10.8049V14.4852C3.26758 15.7729 4.31192 16.8172 5.59959 16.8172H18.8447C20.4208 16.8172 21.699 15.5391 21.699 13.9629C21.699 11.4331 19.6485 9.38163 17.1186 9.38163L15.863 9.38191ZM12.455 8.92117L10.6361 8.19352C10.4217 9.50054 9.82182 10.386 8.96893 10.8494C8.02767 11.3603 6.74169 11.3641 5.2373 10.7626C5.161 10.7459 5.05581 10.6976 4.97544 10.5637C4.86689 10.3835 4.65159 10.2972 4.44893 10.3533C4.2457 10.4095 4.10544 10.5943 4.10544 10.8049V12.3586C4.9997 12.3825 5.97029 12.7397 6.61543 13.3351C7.09875 13.7815 7.40423 14.3576 7.40423 15.024C7.40423 15.3587 7.34715 15.6804 7.24252 15.9794H18.8446C19.6798 15.9794 20.3965 15.4714 20.7027 14.7476C20.8212 14.3851 20.8212 14.6164 20.8212 14.3851C20.8212 14.1539 20.8603 14.167 20.8603 13.9097C20.8322 11.8667 19.1675 10.2197 17.1182 10.2197H16.0078L15.2986 11.6377C15.1956 11.8441 14.9434 11.9283 14.7368 11.8249C14.53 11.7214 14.4462 11.4696 14.5496 11.2626L15.1758 10.0097L13.2347 9.23313L12.3078 11.0876C12.2043 11.2944 11.9525 11.3783 11.7455 11.2748C11.5391 11.1717 11.4549 10.9195 11.5583 10.7131L12.455 8.92117ZM4.10557 13.1968V14.4853C4.10557 15.3105 4.77444 15.9794 5.59969 15.9794H6.33111C6.48147 15.6937 6.56646 15.3687 6.56646 15.024C6.56646 14.5975 6.35664 14.2361 6.04709 13.9508C5.54862 13.4905 4.79843 13.2198 4.10557 13.1968Z" stroke-width="0.7"></path></svg>