<svg width="30" height="30" viewBox="0 0 25 24" fill="#575757" stroke="#575757" xmlns="http://www.w3.org/2000/svg"><path d="M19.5422 5.69814C19.5404 5.6951 19.5376 5.69297 19.5354 5.69002C19.5231 5.67216 19.5096 5.6553 19.4937 5.64067C19.4873 5.63457 19.4793 5.63044 19.4721 5.62487C19.4594 5.61531 19.4468 5.60538 19.4326 5.5978C19.4232 5.59293 19.4129 5.58986 19.4029 5.58608C19.3918 5.58173 19.3813 5.57602 19.3694 5.57285C19.3667 5.57217 19.3638 5.5725 19.3612 5.57182C19.3585 5.57115 19.3563 5.56975 19.3534 5.56916L13.5517 4.44009C13.4576 4.4219 13.361 4.45108 13.2931 4.51893L4.10887 13.6799C4.10564 13.6831 4.10394 13.6872 4.10106 13.6906C4.09745 13.6944 4.09267 13.6975 4.08924 13.7019C4.08274 13.71 4.07842 13.7192 4.07301 13.7279C4.06752 13.7363 4.06166 13.7445 4.05698 13.7536C4.04948 13.768 4.04435 13.7833 4.03957 13.7987C4.03717 13.8073 4.03369 13.8154 4.03165 13.8242C4.02755 13.8437 4.02627 13.8634 4.02626 13.8834C4.02618 13.8888 4.02502 13.8937 4.02522 13.8991C4.02661 13.9235 4.03073 13.9479 4.03824 13.9715L5.49683 18.5614C5.53104 18.6691 5.62501 18.7469 5.7372 18.7602L11.71 19.476C11.7147 19.4766 11.7191 19.4743 11.7238 19.4747C11.7603 19.4775 11.7969 19.4756 11.8315 19.4646C11.8557 19.4569 11.8784 19.4455 11.8997 19.4317C11.9067 19.4271 11.9124 19.4213 11.9193 19.4162C11.9292 19.4085 11.9401 19.4017 11.9489 19.3925L20.8762 10.3745C20.9518 10.2985 20.9786 10.1869 20.9462 10.0847L19.5735 5.76502C19.5659 5.74112 19.5554 5.71874 19.5422 5.69814ZM13.592 5.03535L18.6979 6.02904L10.1577 14.2201L4.94379 13.662L13.592 5.03535ZM4.72413 14.2268L10.0803 14.9054L11.3341 18.8507L5.98992 18.21L4.72413 14.2268ZM11.8746 18.6487L10.6364 14.7522L19.1661 6.38615L20.3441 10.0931L11.8746 18.6487Z"></path></svg>