<svg width="30" height="30" viewBox="0 0 25 24" fill="#575757" stroke="#575757" xmlns="http://www.w3.org/2000/svg"><path d="M22.2529 9.3243C22.2529 8.24353 21.373 7.35926 20.2976 7.35926H19.5287C19.1962 6.25891 18.1926 5.45312 16.9934 5.45312H7.97325C6.77407 5.45312 5.77042 6.25872 5.43799 7.35926H4.3495C3.44362 7.35926 2.70703 8.09935 2.70703 9.00997V14.6169C2.70703 15.6977 3.58689 16.5819 4.66227 16.5819H4.72089V18.547H6.02439V16.5819L18.9617 16.5818V18.5468H20.2652V16.5818H20.3043C21.3797 16.5818 22.2596 15.6975 22.2596 14.6167V9.32423L22.2529 9.3243ZM6.61099 8.1257C6.61099 7.37243 7.21704 6.76334 7.96654 6.76334H16.9867C17.7362 6.76334 18.3423 7.37243 18.3423 8.1257V12.6584L6.61754 12.6583V8.12555L6.61099 8.1257ZM20.2976 15.2785L4.66245 15.2783C4.30399 15.2783 4.01071 14.9836 4.01071 14.6233V9.01637C4.01071 8.82645 4.1671 8.6757 4.34968 8.6757H5.31418V13.9746L19.6526 13.9747V8.66911H20.2978C20.6562 8.66911 20.9495 8.96387 20.9495 9.32413V14.623C20.9561 14.9833 20.6628 15.278 20.3043 15.278L20.2976 15.2785Z" stroke-width="0.315198"></path></svg>