<svg width="30" height="30" viewBox="0 0 25 24" fill="#575757" stroke="#575757" xmlns="http://www.w3.org/2000/svg"><path stroke="none" d="M15.1569 14.7724L14.6798 14.5555L15.9977 11.6572C16.6372 11.8127 17.3097 11.7422 17.8996 11.4579C18.4896 11.1735 18.9601 10.6931 19.2303 10.0991C19.2537 10.0476 19.2721 10 19.2873 9.95861C19.3053 9.92856 19.3217 9.89754 19.3363 9.86569L20.7618 6.73078C20.8559 6.5239 20.8831 6.29268 20.8396 6.0689C20.7962 5.84512 20.6841 5.63977 20.5189 5.48106C20.3537 5.32235 20.1435 5.21808 19.9171 5.18257C19.6907 5.14707 19.4593 5.18207 19.2546 5.28277C19.2124 5.12415 19.1353 4.97664 19.0287 4.85098C18.9222 4.72532 18.789 4.62468 18.6388 4.55637C18.4885 4.48807 18.3251 4.45383 18.1604 4.45614C17.9957 4.45845 17.8338 4.49725 17.6865 4.56973C17.6279 4.34931 17.5021 4.1519 17.3266 4.00463C17.151 3.85736 16.9343 3.76746 16.7061 3.74728C16.4779 3.72709 16.2495 3.77763 16.0523 3.89193C15.8551 4.00622 15.6987 4.17868 15.6046 4.38559L14.1791 7.5205C14.1649 7.55229 14.1524 7.58481 14.1416 7.61791C14.1205 7.65619 14.0968 7.70155 14.073 7.75387C13.803 8.34802 13.7503 9.01851 13.9239 9.65005C14.0976 10.2816 14.4867 10.8347 15.0244 11.2143L13.7064 14.1127L13.2295 13.8958C12.984 13.7842 12.7045 13.7736 12.4526 13.8665C12.2006 13.9594 11.9967 14.1481 11.8855 14.3913L9.57536 19.4717C9.37047 19.9246 9.35502 20.441 9.53241 20.9077C9.70979 21.3744 10.0655 21.7534 10.5217 21.9617L10.8582 22.1147C11.3149 22.3215 11.8344 22.3405 12.3026 22.1674C12.7708 21.9942 13.1497 21.6431 13.3562 21.191L15.6663 16.1106C15.7765 15.8671 15.7847 15.5895 15.6892 15.3386C15.5937 15.0877 15.4023 14.8841 15.1569 14.7724ZM15.6195 8.23639C15.7655 8.33058 15.9318 8.44125 16.1176 8.55423L18.1458 5.54124C18.148 5.53629 18.1512 5.53184 18.1551 5.52814C18.1591 5.52443 18.1638 5.52155 18.1689 5.51967C18.174 5.51778 18.1794 5.51692 18.1849 5.51714C18.1903 5.51736 18.1957 5.51866 18.2007 5.52095C18.2105 5.52564 18.2182 5.53397 18.2221 5.54416C18.2259 5.55436 18.2256 5.56561 18.2212 5.57553L17.2839 9.08458C17.4912 9.14977 17.6835 9.20271 17.8506 9.25091L19.7138 6.25423C19.7183 6.24431 19.7266 6.2366 19.7369 6.2328C19.7472 6.229 19.7586 6.22942 19.7686 6.23398C19.7786 6.23853 19.7864 6.24684 19.7903 6.25708C19.7942 6.26732 19.7938 6.27865 19.7893 6.28857L18.368 9.41432C18.3667 9.41709 18.3636 9.42105 18.3599 9.42622L18.3218 9.48293L18.2993 9.54832C18.2832 9.59427 18.2723 9.62478 18.2577 9.65685C18.0657 10.079 17.7125 10.4069 17.2756 10.5685C16.8387 10.73 16.3541 10.712 15.9282 10.5184C15.5023 10.3247 15.1701 9.9713 15.0047 9.53587C14.8393 9.10044 14.8542 8.61867 15.0462 8.19653C15.0607 8.1647 15.0768 8.13538 15.102 8.09097L15.1341 8.03428L15.1514 7.97191C15.1534 7.96407 15.1548 7.95892 15.156 7.95496L16.5778 4.82825C16.5823 4.81834 16.5906 4.81064 16.6009 4.80685C16.6111 4.80306 16.6225 4.80348 16.6325 4.80802C16.6425 4.81257 16.6503 4.82087 16.6542 4.83109C16.6581 4.84131 16.6577 4.85262 16.6532 4.86253L15.6195 8.23639ZM12.3833 20.7487C12.2923 20.9442 12.1274 21.0959 11.9242 21.171C11.721 21.2462 11.4957 21.2388 11.2968 21.1504L10.9603 20.9974C10.763 20.9055 10.6093 20.7405 10.5323 20.5379C10.4553 20.3353 10.4611 20.1113 10.5485 19.9141L12.8371 14.8811L14.672 15.7155L12.3833 20.7487ZM14.3874 3.73871C14.4691 3.55554 14.4881 3.35044 14.4415 3.15468C14.3745 2.89668 14.234 2.66296 14.037 2.48168C13.8304 2.2859 13.5915 2.12697 13.3309 2.01195C12.6096 1.7107 11.814 1.63663 11.0521 1.79977C10.2901 1.96292 9.59863 2.35538 9.07128 2.92397C8.65666 3.39954 8.32054 3.93767 8.07532 4.51851C7.97561 4.73778 7.89087 4.93868 7.81589 5.10358L4.81495 11.6886C4.70442 11.9323 4.69594 12.2103 4.79138 12.4615C4.88682 12.7128 5.07837 12.9167 5.324 13.0287L5.55346 13.133L3.8543 16.8698C3.6495 17.3227 3.63408 17.839 3.8114 18.3056C3.98873 18.7723 4.34436 19.1513 4.80042 19.3597L5.13702 19.5127C5.59382 19.7194 6.11316 19.7382 6.58134 19.565C7.04952 19.3919 7.42841 19.0409 7.63505 18.589L14.3874 3.73871ZM6.66173 18.147C6.57056 18.3424 6.40564 18.494 6.20245 18.5691C5.99925 18.6442 5.774 18.6369 5.57511 18.5486L5.2385 18.3956C5.04125 18.3036 4.88763 18.1386 4.81065 17.9361C4.73367 17.7335 4.73948 17.5096 4.8268 17.3123L6.52597 13.5755L8.36101 14.41L6.66173 18.147ZM8.79939 13.4459L5.80787 12.0856L8.78886 5.546C8.87289 5.36121 8.95598 5.16363 9.04828 4.96064C9.24817 4.48113 9.52254 4.03619 9.86142 3.64198C10.2374 3.2385 10.7285 2.95883 11.2697 2.83996C11.8109 2.72109 12.3767 2.76862 12.8924 2.97627C13.0726 3.05027 13.2329 3.16563 13.3601 3.31288C13.3706 3.32636 13.38 3.34063 13.3883 3.35556L8.79939 13.4459Z"></path><path d="M4.81495 11.6886L7.81589 5.10358C7.89087 4.93868 7.97561 4.73778 8.07532 4.51851C8.32054 3.93767 8.65666 3.39954 9.07128 2.92397C9.59863 2.35538 10.2901 1.96292 11.0521 1.79977C11.814 1.63663 12.6096 1.7107 13.3309 2.01195C13.5915 2.12697 13.8304 2.2859 14.037 2.48168C14.234 2.66296 14.3745 2.89668 14.4415 3.15468C14.4881 3.35044 14.4691 3.55554 14.3874 3.73871L7.63505 18.589C7.42841 19.0409 7.04952 19.3919 6.58134 19.565C6.11316 19.7382 5.59382 19.7194 5.13702 19.5127L4.80042 19.3597C4.34436 19.1513 3.98873 18.7723 3.8114 18.3056C3.63408 17.839 3.6495 17.3227 3.8543 16.8698L5.55346 13.133L5.324 13.0287C5.07837 12.9167 4.88682 12.7128 4.79138 12.4615C4.69594 12.2103 4.70442 11.9323 4.81495 11.6886ZM4.81495 11.6886L5.30137 11.9098M15.1569 14.7724L14.6798 14.5555L15.9977 11.6572C16.6372 11.8127 17.3097 11.7422 17.8996 11.4579C18.4896 11.1735 18.9601 10.6931 19.2303 10.0991C19.2537 10.0476 19.2721 10 19.2873 9.95861C19.3053 9.92856 19.3217 9.89754 19.3363 9.86569L20.7618 6.73078C20.8559 6.5239 20.8831 6.29268 20.8396 6.0689C20.7962 5.84512 20.6841 5.63977 20.5189 5.48106C20.3537 5.32235 20.1435 5.21808 19.9171 5.18257C19.6907 5.14707 19.4593 5.18207 19.2546 5.28277C19.2124 5.12415 19.1353 4.97664 19.0287 4.85098C18.9222 4.72532 18.789 4.62468 18.6388 4.55637C18.4885 4.48807 18.3251 4.45383 18.1604 4.45614C17.9957 4.45845 17.8338 4.49725 17.6865 4.56973C17.6279 4.34931 17.5021 4.1519 17.3266 4.00463C17.151 3.85736 16.9343 3.76746 16.7061 3.74728C16.4779 3.72709 16.2495 3.77763 16.0523 3.89193C15.8551 4.00622 15.6987 4.17868 15.6046 4.38559L14.1791 7.5205C14.1649 7.55229 14.1524 7.58481 14.1416 7.61791C14.1205 7.65619 14.0968 7.70155 14.073 7.75387C13.803 8.34802 13.7503 9.01851 13.9239 9.65005C14.0976 10.2816 14.4867 10.8347 15.0244 11.2143L13.7064 14.1127L13.2295 13.8958C12.984 13.7842 12.7045 13.7736 12.4526 13.8665C12.2006 13.9594 11.9967 14.1481 11.8855 14.3913L9.57536 19.4717C9.37047 19.9246 9.35502 20.441 9.53241 20.9077C9.70979 21.3744 10.0655 21.7534 10.5217 21.9617L10.8582 22.1147C11.3149 22.3215 11.8344 22.3405 12.3026 22.1674C12.7708 21.9942 13.1497 21.6431 13.3562 21.191L15.6663 16.1106C15.7765 15.8671 15.7847 15.5895 15.6892 15.3386C15.5937 15.0877 15.4023 14.8841 15.1569 14.7724ZM15.6195 8.23639C15.7655 8.33058 15.9318 8.44125 16.1176 8.55423L18.1458 5.54124C18.148 5.53629 18.1512 5.53184 18.1551 5.52814C18.1591 5.52443 18.1638 5.52155 18.1689 5.51967C18.174 5.51778 18.1794 5.51692 18.1849 5.51714C18.1903 5.51736 18.1957 5.51866 18.2007 5.52095C18.2105 5.52564 18.2182 5.53397 18.2221 5.54416C18.2259 5.55436 18.2256 5.56561 18.2212 5.57553L17.2839 9.08458C17.4912 9.14977 17.6835 9.20271 17.8506 9.25091L19.7138 6.25423C19.7183 6.24431 19.7266 6.2366 19.7369 6.2328C19.7472 6.229 19.7586 6.22942 19.7686 6.23398C19.7786 6.23853 19.7864 6.24684 19.7903 6.25708C19.7942 6.26732 19.7938 6.27865 19.7893 6.28857L18.368 9.41432C18.3667 9.41709 18.3636 9.42105 18.3599 9.42622L18.3218 9.48293L18.2993 9.54832C18.2832 9.59427 18.2723 9.62478 18.2577 9.65685C18.0657 10.079 17.7125 10.4069 17.2756 10.5685C16.8387 10.73 16.3541 10.712 15.9282 10.5184C15.5023 10.3247 15.1701 9.9713 15.0047 9.53587C14.8393 9.10044 14.8542 8.61867 15.0462 8.19653C15.0607 8.1647 15.0768 8.13538 15.102 8.09097L15.1341 8.03428L15.1514 7.97191C15.1534 7.96407 15.1548 7.95892 15.156 7.95496L16.5778 4.82825C16.5823 4.81834 16.5906 4.81064 16.6009 4.80685C16.6111 4.80306 16.6225 4.80348 16.6325 4.80802C16.6425 4.81257 16.6503 4.82087 16.6542 4.83109C16.6581 4.84131 16.6577 4.85262 16.6532 4.86253L15.6195 8.23639ZM12.3833 20.7487C12.2923 20.9442 12.1274 21.0959 11.9242 21.171C11.721 21.2462 11.4957 21.2388 11.2968 21.1504L10.9603 20.9974C10.763 20.9055 10.6093 20.7405 10.5323 20.5379C10.4553 20.3353 10.4611 20.1113 10.5485 19.9141L12.8371 14.8811L14.672 15.7155L12.3833 20.7487ZM6.66173 18.147C6.57056 18.3424 6.40564 18.494 6.20245 18.5691C5.99925 18.6442 5.774 18.6369 5.57511 18.5486L5.2385 18.3956C5.04125 18.3036 4.88763 18.1386 4.81065 17.9361C4.73367 17.7335 4.73948 17.5096 4.8268 17.3123L6.52597 13.5755L8.36101 14.41L6.66173 18.147ZM8.79939 13.4459L5.80787 12.0856L8.78886 5.546C8.87289 5.36121 8.95598 5.16363 9.04828 4.96064C9.24817 4.48113 9.52254 4.03619 9.86142 3.64198C10.2374 3.2385 10.7285 2.95883 11.2697 2.83996C11.8109 2.72109 12.3767 2.76862 12.8924 2.97627C13.0726 3.05027 13.2329 3.16563 13.3601 3.31288C13.3706 3.32636 13.38 3.34063 13.3883 3.35556L8.79939 13.4459Z" stroke-width="0.1" fill="none"></path></svg>