<svg width="30" height="30" viewBox="0 0 25 24" fill="#575757" stroke="#575757" xmlns="http://www.w3.org/2000/svg"><path d="M19.2112 14.0596H18.3419V7.39543C18.3419 6.27709 17.432 5.36719 16.3137 5.36719C15.1953 5.36719 14.2855 6.27712 14.2855 7.39543V12.0314C14.2855 12.8303 13.6356 13.4802 12.8367 13.4802H12.5469C11.748 13.4802 11.0982 12.8304 11.0982 12.0314V7.39543C11.0982 6.27709 10.1882 5.36719 9.06991 5.36719H8.78014C7.6618 5.36719 6.7519 6.27712 6.7519 7.39543V14.0596H5.88266C5.72267 14.0596 5.5929 14.1894 5.5929 14.3494V18.9854C5.5929 19.1454 5.72266 19.2752 5.88266 19.2752H8.20067C8.36065 19.2752 8.49043 19.1454 8.49043 18.9854V14.3494C8.49043 14.1894 8.36067 14.0596 8.20067 14.0596H7.33143V7.39543C7.33143 6.59655 7.98129 5.94666 8.7802 5.94666H9.06996C9.86884 5.94666 10.5187 6.59653 10.5187 7.39543V12.0314C10.5187 13.1498 11.4287 14.0597 12.547 14.0597H12.8367C13.9551 14.0597 14.865 13.1498 14.865 12.0314V7.39543C14.865 6.59655 15.5148 5.94666 16.3138 5.94666C17.1127 5.94666 17.7625 6.59653 17.7625 7.39543V14.0596H16.8933C16.7333 14.0596 16.6035 14.1894 16.6035 14.3494V18.9854C16.6035 19.1454 16.7333 19.2752 16.8933 19.2752H19.2113C19.3713 19.2752 19.5011 19.1454 19.5011 18.9854V14.3494C19.5011 14.1894 19.3713 14.0596 19.2113 14.0596H19.2112ZM7.91096 18.6957H6.17245V14.6393H7.91096V18.6957ZM18.9214 18.6957H17.1829V14.6393H18.9214V18.6957Z"></path></svg>