<svg width="30" height="30" viewBox="0 0 25 24" fill="#575757" xmlns="http://www.w3.org/2000/svg"><path d="M19.6379 17.387H19.0043V6.61296H19.6379C19.984 6.61152 20.3159 6.47475 20.5625 6.2317C20.8091 5.98879 20.9507 5.65896 20.9572 5.31278L20.9726 4.25003H20.9725C20.9779 3.89678 20.8412 3.5561 20.5932 3.30454C20.3452 3.05286 20.0066 2.91139 19.6532 2.91162H8.36595C8.01977 2.91293 7.68787 3.04983 7.44127 3.29275C7.19482 3.53579 7.05308 3.86562 7.04668 4.2118L7.03123 5.27455C7.02587 5.6278 7.16264 5.96848 7.41065 6.22004C7.65866 6.47159 7.99726 6.6132 8.35051 6.61296H9.03606V14.1805C8.47354 14.092 7.95186 14.1342 7.47833 14.3078C7.00781 14.4803 6.70509 14.7392 6.46218 14.9472C6.17856 15.1898 5.63684 15.7406 4.38277 15.2312C4.18867 15.1524 3.96723 15.183 3.80192 15.3118C3.63662 15.4405 3.55259 15.6475 3.58138 15.8551C3.61018 16.0626 3.74747 16.239 3.94157 16.3178C4.67085 16.614 5.44016 16.7216 6.17832 16.4778C7.38595 16.0791 7.45675 15.0238 9.03609 15.374V17.3871H8.35081C7.99743 17.3868 7.65885 17.5283 7.41081 17.78C7.1628 18.0316 7.02617 18.3722 7.03153 18.7255L7.04698 19.7882H7.04685C7.05326 20.1344 7.195 20.4642 7.44144 20.7073C7.68802 20.9502 8.01994 21.0871 8.36612 21.0884H19.6534C20.0068 21.0887 20.3454 20.9472 20.5934 20.6955C20.8414 20.444 20.978 20.1033 20.9727 19.75L20.9572 18.6873H20.9574C20.951 18.3411 20.8092 18.0113 20.5626 17.7682C20.3161 17.5253 19.9841 17.3884 19.638 17.3871L19.6379 17.387ZM17.8317 10.1508L10.2092 12.2892V9.4761L17.8317 7.33751V10.1508ZM17.8317 11.3688V14.5484L10.2092 16.6868V13.5072L17.8317 11.3688ZM17.8317 15.7664V17.3871H12.0547L17.8317 15.7664ZM8.20422 5.29158L8.21966 4.22882C8.2211 4.14885 8.28615 4.08472 8.36625 4.08433C20.3605 4.08433 19.6931 4.0626 19.7577 4.12804C19.8173 4.18851 19.8011 4.15513 19.7844 5.29577V5.2959C19.7829 5.37587 19.7178 5.44 19.6379 5.44026H8.35056C8.3113 5.44039 8.27361 5.42456 8.24612 5.39668C8.21851 5.36867 8.20346 5.33085 8.20411 5.29158L8.20422 5.29158ZM16.073 6.61296L10.2088 8.25814V6.61296H16.073ZM19.653 19.9156H8.36571C8.28575 19.9153 8.22057 19.8511 8.21913 19.7711C8.20251 18.6281 8.18654 18.6636 8.24583 18.6034C8.31022 18.5383 7.5782 18.5597 19.6377 18.5597C19.7176 18.5599 19.7827 18.6242 19.7842 18.7042L19.7997 19.7669H19.7996C19.8002 19.8062 19.785 19.844 19.7575 19.872C19.7299 19.9 19.6922 19.9157 19.653 19.9156L19.653 19.9156Z"></path></svg>