<svg width="30" height="30" viewBox="0 0 25 24" fill="#575757" xmlns="http://www.w3.org/2000/svg"><path d="M8.91402 2.32934C7.72418 2.32934 6.64086 2.61874 5.81154 3.13563C4.98207 3.6525 4.37305 4.44957 4.37305 5.39323V15.7782C4.37305 16.7219 4.98207 17.5189 5.81154 18.0358C6.64086 18.5527 7.72418 18.8421 8.91402 18.8421C10.104 18.8421 11.1873 18.5527 12.0167 18.0358C12.4693 17.7538 12.855 17.3859 13.1132 16.9585C13.1626 16.9274 13.2218 16.9037 13.2874 16.8812C13.4651 18.4483 14.332 19.5273 15.4353 20.1129C16.6741 20.7701 18.153 20.9062 19.4411 20.9062C19.6054 20.9062 19.7628 20.841 19.879 20.7248C19.9952 20.6087 20.0604 20.4512 20.0604 20.2869V9.76002C20.0604 9.59574 19.9952 9.43823 19.879 9.32218C19.7628 9.20599 19.6054 9.14076 19.4411 9.14076C18.4747 9.14076 17.6078 8.94941 16.9642 8.65699V7.27666C16.9642 5.70036 15.5881 4.59979 14.0744 4.59979C13.8596 4.59979 13.598 4.59993 13.3198 4.65133C13.0981 4.03336 12.6179 3.51 12.0168 3.13551C11.1875 2.61864 10.1041 2.32922 8.91415 2.32922L8.91402 2.32934ZM8.91402 3.56787C9.89683 3.56787 10.7768 3.82041 11.3651 4.18699C11.9536 4.5537 12.2166 4.98292 12.2166 5.39327V13.7916C12.0944 13.706 11.9694 13.6266 11.8361 13.5528C11.0304 13.1072 10.0169 12.8563 8.91406 12.8563C7.81131 12.8563 6.79784 13.1072 5.99215 13.5528C5.85882 13.6266 5.73385 13.706 5.61161 13.7916V5.39327C5.61161 4.98292 5.87467 4.55373 6.46298 4.18699C7.05143 3.82042 7.93144 3.56787 8.9141 3.56787H8.91402ZM13.7971 5.8383C13.8789 5.83557 13.9704 5.8383 14.0744 5.8383C15.0378 5.8383 15.7257 6.39336 15.7257 7.27679V16.0039C15.247 15.7052 14.67 15.5394 14.0744 15.5394C13.884 15.5394 13.6731 15.5453 13.4553 15.5716V5.88327C13.5566 5.85375 13.6639 5.84252 13.7971 5.83806L13.7971 5.8383ZM16.9642 9.98603C17.525 10.1775 18.1531 10.2989 18.8218 10.3471V19.6164C18.1872 19.5854 17.5457 19.513 16.9642 19.3649V9.98603ZM8.91424 14.0947C9.82591 14.0947 10.6495 14.3119 11.2364 14.6365C11.8232 14.9611 12.1408 15.3712 12.2104 15.7395C12.2123 15.7503 12.2144 15.7611 12.2169 15.7718V15.7782C12.2169 16.1886 11.9538 16.6178 11.3653 16.9845C10.777 17.3511 9.89704 17.6036 8.91423 17.6036C7.93158 17.6036 7.05157 17.3511 6.46312 16.9845C5.87482 16.6178 5.61175 16.1886 5.61175 15.7782V15.7653C5.61406 15.7568 5.61622 15.7482 5.61823 15.7395C5.68778 15.3712 6.00525 14.9612 6.59212 14.6365C7.17898 14.3119 8.00271 14.0947 8.91423 14.0947H8.91424ZM8.91424 14.9204C7.6603 14.9204 6.64381 15.3362 6.64381 15.8492C6.64381 16.3622 7.6603 16.778 8.91424 16.778C10.1683 16.778 11.1848 16.3622 11.1848 15.8492C11.1848 15.3362 10.1683 14.9204 8.91424 14.9204ZM14.5131 16.8232C15.1659 16.9568 15.6238 17.3905 15.7129 17.9971C15.7162 18.0167 15.7205 18.0361 15.7257 18.0551V18.8486C15.0722 18.4285 14.6261 17.8383 14.5131 16.8232L14.5131 16.8232Z"></path></svg>