<svg width="30" height="30" viewBox="0 0 25 24" fill="#575757" stroke="#575757" xmlns="http://www.w3.org/2000/svg"><path d="M3.20498 9.48318L7.92098 4.20059C8.01165 4.10992 8.1251 4.06451 8.26103 4.06451H16.2873C16.4234 4.06451 16.5367 4.10992 16.6273 4.20059L21.3433 9.48318C21.4794 9.64189 21.502 9.86864 21.3659 10.05L19.2801 12.9521C19.1441 13.1563 18.8721 13.2015 18.6907 13.0654C18.6681 13.0654 18.6681 13.0428 18.6453 13.0428L17.1943 11.9999L17.2397 18.1217C17.2397 18.5978 17.0584 19.0739 16.7182 19.4139C16.3781 19.754 15.902 19.9355 15.4259 19.9355H9.12283C8.64671 19.9355 8.17059 19.7542 7.83056 19.4139C7.49051 19.0739 7.309 18.5978 7.309 18.1217L7.35441 11.9999L5.90343 13.0428C5.72209 13.2015 5.44992 13.1789 5.29121 12.9974C5.29121 12.9748 5.26858 12.9748 5.26858 12.952L3.18277 10.0498C3.04653 9.86864 3.06916 9.6419 3.20524 9.48319L3.20498 9.48318ZM10.4377 4.97152C10.5284 6.08247 11.3899 7.7376 12.2741 7.7376C13.1583 7.7376 14.0199 6.08247 14.1106 4.97152H10.4377ZM5.74431 12.0455L7.55814 10.7304C7.69422 10.6398 7.87555 10.6171 8.01165 10.7078C8.17035 10.7758 8.26102 10.9345 8.26102 11.1159L8.21561 18.1216C8.21561 18.3484 8.30628 18.5978 8.46499 18.7565C8.64633 18.9378 8.87307 19.0286 9.12244 19.0286H15.4255C15.6749 19.0286 15.9016 18.938 16.083 18.7566C16.2417 18.5979 16.3323 18.3485 16.3323 18.1218L16.2869 11.116C16.2869 10.9347 16.3776 10.776 16.5363 10.708C16.6043 10.6625 16.6724 10.6625 16.7404 10.6625C16.8311 10.6625 16.9218 10.6852 16.9898 10.7306L18.8036 12.0457L20.4133 9.82377L16.083 4.97167H15.0175C14.9268 6.35461 13.8839 8.64457 12.274 8.64457C10.6643 8.64472 9.6214 6.35477 9.53054 4.97167H8.46501L4.13467 9.82377L5.74431 12.0455Z" stroke-width="0.681106"></path></svg>