<svg width="30" height="30" viewBox="0 0 25 24" fill="#575757" stroke="#575757" xmlns="http://www.w3.org/2000/svg"><path d="M21.3932 9.19876L21.3921 9.06523C21.3782 8.42997 21.0776 7.84664 20.5669 7.4637C20.042 7.0706 19.3765 6.94277 18.7394 7.11531C18.4009 7.20683 18.0423 7.33046 17.6732 7.4826C16.5576 7.94261 15.4247 8.62044 14.3112 9.32895C13.9475 9.04717 13.4967 8.87223 13.0019 8.87223H11.5466C11.0518 8.87223 10.6013 9.04687 10.2374 9.32864C9.12379 8.62016 7.99102 7.94229 6.87529 7.4823C6.5059 7.33016 6.14701 7.20622 5.80851 7.1147C5.17265 6.94336 4.5065 7.07029 3.98136 7.46339C3.47064 7.84599 3.16969 8.42993 3.15617 9.06523L3.15497 9.19876C3.15527 9.58226 3.19158 9.95105 3.26209 10.2961C3.49525 11.4307 3.49555 12.5761 3.26239 13.7007C3.19097 14.0461 3.15497 14.4167 3.15497 14.8011L3.15617 14.9352C3.16997 15.5705 3.47095 16.1538 3.98167 16.5368C4.35316 16.8149 4.79518 16.9599 5.24742 16.9599C5.43407 16.9599 5.62221 16.935 5.80796 16.8852C6.14345 16.7948 6.50204 16.6709 6.87475 16.5176C7.99017 16.0575 9.12294 15.3799 10.2368 14.6715C10.6005 14.9536 11.0513 15.1282 11.5464 15.1282H13.0017C13.4965 15.1282 13.9473 14.9536 14.3112 14.6715C15.4248 15.38 16.5576 16.0576 17.6733 16.5176C18.0454 16.6709 18.4043 16.7945 18.7401 16.8852C19.3762 17.0556 20.0418 16.9296 20.5666 16.5368C21.0773 16.1542 21.3783 15.5705 21.3918 14.9371L21.3936 14.8009C21.3933 14.4147 21.357 14.0435 21.2853 13.6981C21.0527 12.5776 21.053 11.4329 21.2862 10.2962C21.3567 9.95228 21.3927 9.5832 21.3933 9.19881L21.3932 9.19876ZM6.54717 15.7218C6.20838 15.8616 5.88431 15.9735 5.58394 16.054C5.20524 16.1578 4.80914 16.0813 4.49733 15.8481C4.19965 15.6252 4.02441 15.2855 4.01661 14.9173L4.01541 14.8015C4.01541 14.4756 4.04572 14.1638 4.10513 13.8754C4.36169 12.6358 4.36169 11.3734 4.10483 10.1236C4.04572 9.83549 4.01571 9.52401 4.01541 9.19905L4.01661 9.08382C4.02441 8.71502 4.19965 8.37564 4.49733 8.15238C4.71788 7.98735 4.98045 7.90122 5.24932 7.90122C5.36064 7.90122 5.47288 7.91593 5.5839 7.94563C5.88698 8.02785 6.21106 8.13978 6.54745 8.27842C7.56684 8.69852 8.62487 9.32538 9.67245 9.98918C9.50141 10.2974 9.39548 10.6466 9.39548 11.0236V11.57H7.72705C7.48938 11.57 7.29673 11.7623 7.29673 12.0003C7.29673 12.238 7.48938 12.4306 7.72705 12.4306H9.39548V12.9776C9.39548 13.3542 9.50141 13.7032 9.67215 14.0117C8.62457 14.6749 7.56623 15.3017 6.54715 15.7219L6.54717 15.7218ZM14.2921 12.9773C14.2921 13.689 13.7132 14.2679 13.0014 14.2679H11.5461C10.8343 14.2679 10.2555 13.6891 10.2555 12.9773V11.0234C10.2555 10.3117 10.8343 9.73281 11.5461 9.73281H13.0014C13.7132 9.73281 14.2921 10.3117 14.2921 11.0234V12.9773ZM20.4424 13.873C20.5021 14.1611 20.5324 14.4737 20.5327 14.8014L20.5312 14.9169C20.5234 15.2857 20.3482 15.6251 20.0505 15.8484C19.739 16.0812 19.3429 16.1575 18.9637 16.0542C18.663 15.9732 18.3392 15.8613 18.0007 15.7221C16.9816 15.3022 15.9233 14.6751 14.876 14.0116C15.0468 13.7034 15.1527 13.3541 15.1527 12.9775V12.4305H16.8211C17.0588 12.4305 17.2514 12.2381 17.2514 12.0002C17.2514 11.7625 17.0588 11.5699 16.8211 11.5699H15.1527V11.0234C15.1527 10.6468 15.0468 10.2976 14.876 9.98937C15.9233 9.3256 16.9816 8.69842 18.0007 8.27837C18.3365 8.13974 18.6606 8.02811 18.964 7.94619C19.343 7.84327 19.7394 7.91919 20.0508 8.15234C20.3488 8.3753 20.5237 8.71498 20.5315 9.08316L20.5327 9.19839C20.5324 9.52427 20.5021 9.83575 20.443 10.1229C20.1861 11.3758 20.1858 12.6372 20.4424 13.8729L20.4424 13.873Z" stroke-width="0.8"></path></svg>