<svg width="30" height="30" viewBox="0 0 25 24" fill="#575757" stroke="#575757" xmlns="http://www.w3.org/2000/svg"><path d="M16.2513 11.4736C16.3497 11.5535 16.4943 11.5384 16.5741 11.44L17.5151 10.2801C17.595 10.1817 17.5799 10.0371 17.4815 9.95723L13.1997 6.48354C13.1013 6.40365 12.9567 6.41873 12.8769 6.51717L7.03346 13.7199C6.95361 13.8183 6.96863 13.9628 7.0671 14.0427L11.3488 17.5164C11.4473 17.5963 11.5918 17.5812 11.6717 17.4828L16.0921 12.0341C16.1719 11.9357 16.1569 11.7911 16.0584 11.7112C15.96 11.6313 15.8155 11.6464 15.7356 11.7449L11.4598 17.0153L7.53455 13.8309L13.0888 6.98462L17.014 10.1691L16.2176 11.1507C16.1378 11.2492 16.1528 11.3937 16.2513 11.4736Z" stroke-width="0.4"></path><path d="M21.4579 8.5985C21.3382 8.50138 21.1625 8.51971 21.0654 8.6394L20.6912 9.10066L20.156 8.66651L20.5303 8.20525C20.6273 8.08558 20.6091 7.90985 20.4894 7.81272C20.3696 7.7156 20.1939 7.73393 20.0968 7.85362L19.7226 8.31488L19.1875 7.88075L19.5617 7.41949C19.6588 7.29982 19.6405 7.12409 19.5208 7.02696C19.4011 6.92984 19.2254 6.94817 19.1283 7.06786L18.7541 7.52912L18.2189 7.09497L18.5932 6.63371C18.6902 6.51404 18.672 6.33831 18.5523 6.24118C18.4325 6.14406 18.2568 6.16239 18.1597 6.28208L17.7855 6.74334L17.2504 6.30921L17.6246 5.84795C17.7217 5.72828 17.7034 5.55255 17.5837 5.45543C17.464 5.3583 17.2883 5.37663 17.1912 5.49632L16.817 5.95758L16.2819 5.52345L16.6561 5.06219C16.7532 4.94252 16.7349 4.76679 16.6152 4.66967C16.4955 4.57254 16.3198 4.59087 16.2227 4.71056L15.8484 5.17183L15.3133 4.73767L15.6875 4.27641C15.7846 4.15674 15.7663 3.98101 15.6466 3.88389C15.5269 3.78676 15.3512 3.80509 15.2541 3.92478L14.8799 4.38605L14.3447 3.95189L14.7189 3.49063C14.816 3.37096 14.7978 3.19523 14.678 3.09811C14.5583 3.00098 14.3826 3.01931 14.2855 3.13901L13.9113 3.60027L13.3762 3.16614L13.7504 2.70487C13.8475 2.58521 13.8292 2.40948 13.7095 2.31235C13.5898 2.21522 13.4141 2.23355 13.317 2.35325L4.73115 12.9363C4.63406 13.056 4.65233 13.2317 4.77205 13.3288C4.89177 13.4259 5.06747 13.4076 5.16457 13.2879L13.0246 3.59956L20.3395 9.53404L11.5239 20.4003L4.20898 14.4659L4.57859 14.0103C4.67567 13.8906 4.65741 13.7149 4.53769 13.6177C4.41797 13.5206 4.24227 13.5389 4.14516 13.6586L3.04969 15.0089C2.95261 15.1286 2.97087 15.3043 3.09059 15.4015C3.21031 15.4986 3.38601 15.4803 3.48312 15.3606L3.85735 14.8993L4.39249 15.3334L4.01828 15.7947C3.92119 15.9144 3.93946 16.0901 4.05918 16.1872C4.1789 16.2843 4.3546 16.266 4.4517 16.1463L4.82591 15.6851L5.36106 16.1192L4.98684 16.5805C4.88976 16.7001 4.90802 16.8759 5.02774 16.973C5.14746 17.0701 5.32316 17.0518 5.42027 16.9321L5.79448 16.4708L6.32962 16.905L5.95541 17.3662C5.85833 17.4859 5.87659 17.6616 5.99631 17.7588C6.11603 17.8559 6.29173 17.8376 6.38883 17.7179L6.76304 17.2566L7.29814 17.6907L6.92392 18.152C6.82684 18.2717 6.8451 18.4474 6.96482 18.5445C7.08454 18.6416 7.26024 18.6233 7.35734 18.5036L7.73156 18.0424L8.2667 18.4765L7.89249 18.9378C7.7954 19.0574 7.81367 19.2332 7.93339 19.3303C8.0531 19.4274 8.22881 19.4091 8.32591 19.2894L8.70012 18.8281L9.23527 19.2623L8.86105 19.7235C8.76397 19.8432 8.78223 20.0189 8.90195 20.1161C9.02167 20.2132 9.19737 20.1949 9.29448 20.0752L9.66869 19.6139L10.2038 20.048L9.82959 20.5093C9.73251 20.629 9.75077 20.8047 9.87049 20.9018C9.99021 20.999 10.1659 20.9806 10.263 20.8609L10.6372 20.3997L11.1724 20.8338L10.7982 21.2951C10.7011 21.4148 10.7193 21.5905 10.8391 21.6876C10.9588 21.7847 11.1345 21.7664 11.2316 21.6467L21.4989 8.99107C21.5959 8.87131 21.5776 8.69559 21.4579 8.5985Z" stroke-width="0.4"></path></svg>