<svg width="30" height="30" viewBox="0 0 25 24" fill="#575757" stroke="#575757" xmlns="http://www.w3.org/2000/svg"><path d="M9.15663 5.13888C11.7355 2.3126 16.1173 2.11204 18.9435 4.69092C21.7109 7.21608 21.9609 11.4698 19.5491 14.2992L19.3915 14.4778L15.3919 18.8611C12.813 21.6874 8.43129 21.888 5.60501 19.3091C2.83761 16.7839 2.58766 12.5302 4.99948 9.7008L5.15705 9.52216L9.15663 5.13888ZM10.2532 6.13949L6.25364 10.5228C4.22738 12.7434 4.38496 16.1862 6.60561 18.2125C8.7721 20.1893 12.1019 20.0876 14.1446 18.0193L14.2953 17.8605L18.2949 13.4772C20.3212 11.2566 20.1636 7.81378 17.9429 5.78752C15.7765 3.81067 12.4467 3.91245 10.404 5.98068L10.2532 6.13949ZM7.41282 12.923C7.68913 12.6202 8.1586 12.5987 8.46142 12.8751L9.55596 13.875L10.5577 12.7782C10.834 12.4754 11.3035 12.4539 11.6063 12.7302C11.9091 13.0065 11.9306 13.476 11.6543 13.7788L10.6526 14.8756L11.7512 15.8769C12.054 16.1532 12.0755 16.6226 11.7992 16.9255C11.5229 17.2283 11.0534 17.2498 10.7506 16.9734L9.65195 15.9722L8.65248 17.0686C8.37617 17.3714 7.9067 17.3929 7.60389 17.1166C7.30107 16.8403 7.27958 16.3708 7.55589 16.068L8.55536 14.9716L7.46081 13.9716C7.158 13.6953 7.13651 13.2259 7.41282 12.923ZM14.4742 10.3231C14.9348 9.81842 15.7172 9.7826 16.2219 10.2431C16.7266 10.7036 16.7624 11.4861 16.3019 11.9908C15.8414 12.4955 15.0589 12.5313 14.5542 12.0708C14.0495 11.6103 14.0137 10.8278 14.4742 10.3231ZM13.2497 6.52625C13.7102 6.02156 14.4926 5.98574 14.9973 6.44626C15.502 6.90677 15.5378 7.68923 15.0773 8.19392C14.6168 8.69861 13.8343 8.73443 13.3297 8.27391C12.825 7.8134 12.7891 7.03094 13.2497 6.52625Z" stroke-width="0.3"></path></svg>