<svg width="30" height="30" viewBox="0 0 25 24" fill="#575757" stroke="#575757" xmlns="http://www.w3.org/2000/svg"><path d="M19.9124 15.3677C19.8482 15.2593 19.7279 15.1959 19.6018 15.2041L15.5669 15.4668C15.4462 12.8304 14.0646 10.4351 11.8252 9.01933C11.0765 8.54591 10.2693 8.20775 9.43607 8.00273C9.37954 7.96796 9.31547 7.94445 9.24411 7.9488C9.2361 7.94922 9.22953 7.95367 9.22166 7.95471C7.53785 7.58906 5.75888 7.76719 4.13902 8.51318C4.01861 8.56858 3.942 8.68974 3.9436 8.82227C3.97554 11.5683 5.37887 14.083 7.69715 15.5487C9.85961 16.9159 12.5049 17.1714 14.8752 16.2674L16.4398 20.2054C16.4665 20.2727 16.5136 20.328 16.5725 20.3653C16.6165 20.3931 16.6671 20.4108 16.7208 20.4158C16.8467 20.4275 16.9684 20.3677 17.0359 20.2609L19.9076 15.7188C19.975 15.612 19.9769 15.4764 19.9124 15.3677ZM5.92776 12.9387C5.14205 11.804 4.6791 10.4579 4.62094 9.03414C6.00149 8.44656 7.49708 8.2994 8.92482 8.57747C8.88503 9.38748 8.54354 11.7932 5.9455 12.9265C5.93866 12.9295 5.93434 12.9355 5.92776 12.9387ZM8.05612 14.9809C7.39991 14.566 6.82448 14.0588 6.34054 13.4826C9.01958 12.2439 9.50317 9.77582 9.58472 8.73971C10.2389 8.93115 10.8728 9.21198 11.4662 9.58718C13.5295 10.8917 14.802 13.1023 14.9013 15.5339C12.662 16.4868 10.1193 16.2853 8.05612 14.9809ZM16.8206 19.3443L15.5478 16.1411L18.9873 15.9172L16.8206 19.3443Z" stroke-width="0.8"></path><path d="M11.5147 5.84082C11.5147 5.84082 12.4409 5.58698 12.4321 4.44158C12.4233 3.29618 13.3494 3.04234 13.3494 3.04234" stroke-width="1.17494" stroke-linecap="round"></path><path d="M14.2207 7.61474C14.2207 7.61474 15.1468 7.3609 15.138 6.21551C15.1292 5.07011 16.0554 4.81627 16.0554 4.81627" stroke-width="1.17494" stroke-linecap="round"></path><path d="M16.9265 9.38891C16.9265 9.38891 17.8526 9.13507 17.8438 7.98968C17.835 6.84428 18.7612 6.59044 18.7612 6.59044" stroke-width="1.17494" stroke-linecap="round"></path></svg>