<svg width="30" height="30" viewBox="0 0 25 24" fill="#575757" stroke="#575757" xmlns="http://www.w3.org/2000/svg"><path d="M20.86 11.2687C20.5122 10.6267 19.918 10.1591 19.187 9.95179C18.9387 9.88138 18.683 9.84563 18.427 9.84563C17.9825 9.84563 17.5559 9.95347 17.1759 10.1464C17.1772 9.94619 17.1761 9.75867 17.1751 9.58498C17.1745 9.4787 17.1739 9.37711 17.1739 9.2804C17.1739 9.01452 16.9583 8.79895 16.6925 8.79895H3.85139C3.58551 8.79895 3.36994 9.01452 3.36994 9.2804C3.36994 9.37705 3.36934 9.4787 3.36874 9.58498C3.35797 11.4643 3.33792 14.9624 6.42753 18.6185C6.51906 18.7267 6.65357 18.7891 6.79523 18.7891H13.7486C13.8903 18.7891 14.0248 18.7267 14.1163 18.6185C14.4051 18.2768 14.6666 17.9364 14.9036 17.5986C15.5399 17.5017 20.0325 16.7055 21.0409 13.4599C21.2776 12.6987 21.2132 11.9205 20.86 11.2687ZM7.02104 17.8262C4.38611 14.6079 4.3225 11.6237 4.33074 9.76192H16.2132C16.2214 11.6236 16.1578 14.6079 13.5229 17.8262H7.02104ZM20.1215 13.1741C19.4882 15.2122 16.9872 16.1156 15.6165 16.4645C16.6838 14.5538 17.0245 12.7742 17.1302 11.3564C17.465 11.0156 17.9287 10.8085 18.427 10.8085C18.5942 10.8085 18.7616 10.832 18.9243 10.8781C19.4035 11.014 19.7903 11.3156 20.0135 11.7274C20.2453 12.1553 20.2826 12.6555 20.1215 13.1741Z" stroke-width="0.7"></path><path d="M6.94579 6.23649C6.94579 6.23649 7.58008 5.51545 6.94328 4.56335C6.30648 3.61124 6.94077 2.8902 6.94077 2.8902" stroke-width="1.17494" stroke-linecap="round"></path><path d="M10.1813 6.23161C10.1813 6.23161 10.8156 5.51057 10.1788 4.55846C9.54202 3.60636 10.1763 2.88532 10.1763 2.88532" stroke-width="1.17494" stroke-linecap="round"></path><path d="M13.4169 6.22685C13.4169 6.22685 14.0512 5.50581 13.4144 4.5537C12.7776 3.6016 13.4119 2.88056 13.4119 2.88056" stroke-width="1.17494" stroke-linecap="round"></path></svg>