<svg width="30" height="30" viewBox="0 0 25 24" fill="#575757" stroke="#575757" xmlns="http://www.w3.org/2000/svg"><path d="M20.2453 12.8363C20.399 12.517 20.2743 12.1332 19.9621 11.9653L18.6934 11.2829L19.2008 10.2307C19.2011 10.2301 19.2013 10.2295 19.2016 10.2288C20.0243 8.66348 19.4323 6.71753 17.8715 5.87808C17.8074 5.8436 17.7416 5.81124 17.6744 5.78101C17.5535 4.86797 16.9995 4.04551 16.1767 3.60298C14.9756 2.95701 13.4895 3.25314 12.6173 4.25744C11.7271 4.24551 10.894 4.71883 10.4499 5.51735C10.4488 5.5191 10.4475 5.52072 10.4465 5.52247L4.28956 15.8514C4.19697 16.0068 4.17189 16.1931 4.2201 16.3674C4.26832 16.5417 4.38562 16.6887 4.54491 16.7744L13.067 21.3576C13.2263 21.4433 13.4135 21.4601 13.5856 21.4043C13.7576 21.3484 13.8992 21.2247 13.9778 21.0618L14.6902 19.5845L15.9124 20.2418C16.0717 20.3275 16.2591 20.3443 16.4312 20.2884C16.6032 20.2324 16.7449 20.1086 16.8233 19.9456L20.2453 12.8363V12.8363ZM12.7997 5.60311C13.066 5.65369 13.3362 5.53706 13.482 5.30868C13.9217 4.61984 14.8296 4.38337 15.5489 4.77024C16.0831 5.05755 16.3987 5.61452 16.3724 6.22372C16.3592 6.5312 16.5591 6.80721 16.8557 6.89037C16.9941 6.92916 17.1247 6.98124 17.2438 7.04527C17.965 7.43319 18.3358 8.22172 18.2296 8.98904L12.102 5.69356C12.3131 5.59201 12.5562 5.55679 12.7997 5.60311V5.60311ZM5.78257 15.9352L11.2602 6.74581L17.7315 10.2262L13.811 18.3563C13.8105 18.3572 13.81 18.3578 13.8096 18.3586C13.8032 18.3703 13.7981 18.3824 13.7925 18.3943L13.0846 19.8623L5.78257 15.9352V15.9352ZM15.2664 18.3896L18.1172 12.4779L18.7764 12.8325L15.9297 18.7463L15.2664 18.3896Z" stroke-width="0.4"></path></svg>