<svg width="30" height="30" viewBox="0 0 25 24" fill="#575757" stroke="#575757" xmlns="http://www.w3.org/2000/svg"><path stroke="none" d="M15.6677 10.317C15.6036 10.0622 15.6311 9.79161 15.7453 9.55499L16.3166 8.37116L17.7199 5.46307L18.2843 4.29347C18.6692 4.37341 19.0788 4.20219 19.2831 3.84249L19.348 3.72813C19.6014 3.28205 19.4239 2.88793 18.9778 2.63453L16.6891 1.33436C16.243 1.08096 15.6947 1.06276 15.4413 1.50888L15.3763 1.62324C15.172 1.98294 15.2347 2.42239 15.5003 2.71206L14.7847 3.79577L13.0054 6.49026L12.2811 7.58709C12.1363 7.80632 11.918 7.96859 11.6663 8.04396L11.6616 8.04539C10.6922 8.34707 9.78723 9.10147 9.24076 10.0634L4.22189 18.8985C3.71866 19.7844 4.02994 20.9144 4.91577 21.4176L7.63705 22.9635C8.52291 23.4667 9.65298 23.1554 10.1562 22.2696L15.1751 13.4345C15.7153 12.4837 15.9044 11.2905 15.6677 10.317ZM16.6891 5.45052C16.6891 5.45052 16.8785 5.22045 16.8191 5.46307C16.1815 5.10087 15.2554 4.60758 15.2554 4.60758L15.3234 4.67476L16.6891 5.45052ZM15.5712 4.20478L16.2893 3.21199L17.4509 3.87183L16.9719 4.98431L15.5712 4.20478ZM11.9369 8.93778C12.3968 8.79938 12.7957 8.50261 13.0604 8.10177L15.2554 4.60758C15.2554 4.60758 16.1815 5.10087 16.8191 5.46307C16.1815 6.66487 14.9044 9.1492 14.9044 9.1492C14.6952 9.58259 14.6447 10.0783 14.7613 10.5414C14.9386 11.271 14.7977 12.1759 14.3939 12.9182L10.0844 10.4701C10.5135 9.74628 11.218 9.16223 11.9369 8.93778ZM9.62267 11.2818L13.933 13.7304L10.6661 19.4814L6.3557 17.0329L9.62267 11.2818ZM8.09836 22.1516L5.37708 20.6057C4.93897 20.3569 4.78501 19.798 5.03389 19.3598L5.89444 17.8449L10.2048 20.2935L9.34426 21.8084C9.09538 22.2465 8.53648 22.4005 8.09836 22.1516Z"></path><path d="M16.8191 5.46307C16.8785 5.22045 16.6891 5.45052 16.6891 5.45052L15.3234 4.67476L15.2554 4.60758M16.8191 5.46307C16.1815 5.10087 15.2554 4.60758 15.2554 4.60758M16.8191 5.46307C16.1815 6.66487 14.9044 9.1492 14.9044 9.1492C14.6952 9.58259 14.6447 10.0783 14.7613 10.5414C14.9386 11.271 14.7977 12.1759 14.3939 12.9182L10.0844 10.4701C10.5135 9.74628 11.218 9.16223 11.9369 8.93778C12.3968 8.79938 12.7957 8.50261 13.0604 8.10177L15.2554 4.60758M15.6677 10.317C15.6036 10.0622 15.6311 9.79161 15.7453 9.55499L16.3166 8.37116L17.7199 5.46307L18.2843 4.29347C18.6692 4.37341 19.0788 4.20219 19.2831 3.84249L19.348 3.72813C19.6014 3.28205 19.4239 2.88793 18.9778 2.63453L16.6891 1.33436C16.243 1.08096 15.6947 1.06276 15.4413 1.50888L15.3763 1.62324C15.172 1.98294 15.2347 2.42239 15.5003 2.71206L14.7847 3.79577L13.0054 6.49026L12.2811 7.58709C12.1363 7.80632 11.918 7.96859 11.6663 8.04396L11.6616 8.04539C10.6922 8.34707 9.78723 9.10147 9.24076 10.0634L4.22189 18.8985C3.71866 19.7844 4.02994 20.9144 4.91577 21.4176L7.63705 22.9635C8.52291 23.4667 9.65298 23.1554 10.1562 22.2696L15.1751 13.4345C15.7153 12.4837 15.9044 11.2905 15.6677 10.317ZM15.5712 4.20478L16.2893 3.21199L17.4509 3.87183L16.9719 4.98431L15.5712 4.20478ZM9.62267 11.2818L13.933 13.7304L10.6661 19.4814L6.3557 17.0329L9.62267 11.2818ZM8.09836 22.1516L5.37708 20.6057C4.93897 20.3569 4.78501 19.798 5.03389 19.3598L5.89444 17.8449L10.2048 20.2935L9.34426 21.8084C9.09538 22.2465 8.53648 22.4005 8.09836 22.1516Z" stroke-width="0.4"></path></svg>