<svg width="30" height="30" viewBox="0 0 25 24" fill="#575757" stroke="#575757" xmlns="http://www.w3.org/2000/svg"><path d="M6.51251 21.9033C5.5328 21.9033 4.59323 21.5142 3.90049 20.8214C3.20775 20.1286 2.81854 19.1891 2.81854 18.2094V13.8997C2.81854 13.7365 2.88341 13.5798 2.99884 13.4644C3.11428 13.3489 3.27094 13.2841 3.4342 13.2841H9.59082C9.75408 13.2841 9.91075 13.3489 10.0262 13.4644C10.1416 13.5798 10.2065 13.7365 10.2065 13.8997V16.7958C11.7936 16.4695 13.1703 14.8552 14.6185 13.1609C16.538 10.9076 18.7114 8.35876 21.9041 8.35876C22.0673 8.35876 22.224 8.42363 22.3394 8.53907C22.4548 8.6545 22.5197 8.81117 22.5197 8.97443V10.2057C22.5199 10.3645 22.4587 10.517 22.349 10.6318C22.2394 10.7465 22.0897 10.8144 21.9311 10.8214C20.3525 10.8916 18.9501 12.7312 17.326 14.8626C14.9408 17.9914 11.9746 21.8811 6.85972 21.8924L6.77466 21.9034H6.51245L6.51251 21.9033ZM6.51251 20.672C6.59469 20.6752 6.67701 20.6727 6.75878 20.6646C6.80536 20.6577 6.85264 20.6577 6.89909 20.6646C11.4082 20.5956 14.0309 17.1553 16.3469 14.1164C17.9907 11.9616 19.4252 10.0727 21.2894 9.6678L21.2895 9.63207C18.9783 9.94485 17.2409 11.9815 15.5565 13.9565C13.744 16.0804 12.0324 18.0863 9.62889 18.0863H9.59069C9.42743 18.0863 9.27076 18.0215 9.15533 17.906C9.0399 17.7906 8.97503 17.6339 8.97503 17.4707V14.5155H4.04974V18.2095C4.04974 18.8626 4.30919 19.489 4.77108 19.9508C5.23283 20.4127 5.85922 20.6721 6.51238 20.6721L6.51251 20.672Z" stroke-width="0.4"></path><path d="M6.78971 12.0527H6.75893C6.66507 12.05 6.57327 12.0255 6.49054 11.9813C5.98482 11.7258 5.5217 11.3935 5.11754 10.9962C4.41625 10.2999 4.03053 9.34683 4.05002 8.35874C4.06541 7.39335 4.53485 6.49171 5.31709 5.92565C5.72965 5.55625 5.89701 5.38021 5.89701 5.12652C5.87969 4.83752 5.80466 4.55498 5.67658 4.29538C5.62793 4.18338 5.6135 4.05942 5.63549 3.93931C5.65747 3.81907 5.71464 3.70817 5.79971 3.62063C5.92751 3.49282 6.10314 3.42493 6.28358 3.43345C6.37236 3.4384 6.45908 3.46273 6.53727 3.50491C7.25327 3.80422 7.86576 4.30693 8.29905 4.95091C8.73247 5.59475 8.96748 6.35142 8.97532 7.12743C8.95361 8.09807 8.47991 9.00298 7.69482 9.57414C7.57169 9.68985 7.4399 9.80446 7.32542 9.92512C7.14072 10.1222 6.99052 10.3807 7.35126 11.1835V11.1834C7.43742 11.374 7.42093 11.5954 7.30742 11.7712C7.1939 11.9468 6.9989 12.0529 6.78974 12.0527L6.78971 12.0527ZM7.10373 5.42433C6.9582 5.99408 6.61848 6.49527 6.14326 6.84158C5.62378 7.17456 5.30139 7.74186 5.28133 8.35861C5.26196 8.98912 5.49255 9.60161 5.92282 10.0628C5.9881 9.69108 6.164 9.34778 6.42773 9.07774C6.56323 8.93372 6.71467 8.79574 6.86735 8.65789L6.86721 8.65775C7.39052 8.31996 7.71732 7.74939 7.74398 7.12726C7.76597 6.49675 7.53496 5.88369 7.1025 5.4243L7.10373 5.42433Z" stroke-width="0.4"></path></svg>