<svg width="30" height="30" viewBox="0 0 24 24" fill="#575757" xmlns="http://www.w3.org/2000/svg"><g clip-path="url(#clip0_2090_12721)"><path d="M12.3277 0.897648C12.0443 0.9584 11.7801 1.08784 11.5585 1.27458C11.3368 1.46133 11.1645 1.69966 11.0565 1.96863L7.31305 10.5765C7.22635 10.7823 7.10058 10.9692 6.94271 11.127L2.98908 15.0807C2.65725 15.4125 2.47084 15.8626 2.47084 16.3318C2.47084 16.8011 2.65725 17.2511 2.98908 17.583L3.08917 17.6831L1.83802 18.9342L4.84078 21.937L6.09193 20.6858L6.22205 20.8159C6.55648 21.1347 7.00233 21.31 7.4643 21.3044C7.92627 21.2988 8.36773 21.1127 8.69432 20.7859L13.3786 22.4675C13.6946 22.5801 14.036 22.6014 14.3635 22.5288C14.6911 22.4562 14.9915 22.2927 15.2303 22.0571L15.8609 21.4265C16.1883 21.0938 16.371 20.6451 16.3692 20.1783C16.3673 19.7115 16.181 19.2643 15.8509 18.9342L13.3186 16.4019L21.8364 12.7485C22.0456 12.6584 22.2359 12.5293 22.3969 12.3682C22.6428 12.1142 22.8097 11.7943 22.8773 11.4473C22.9308 11.1716 22.9179 10.887 22.8395 10.6172C22.7612 10.3474 22.6198 10.1002 22.4269 9.89591L13.9091 1.37809C13.7045 1.17534 13.4535 1.02559 13.1779 0.941864C12.9023 0.858138 12.6105 0.84296 12.3277 0.897648ZM7.49322 13.0788L10.7262 16.3118L7.4732 19.5648L4.24023 16.3318L7.49322 13.0788ZM14.5997 20.1854L13.9692 20.8159L10.0856 19.3946L11.9473 17.5329L14.5997 20.1854ZM12.4978 14.8405C12.3182 14.8986 12.1441 14.9722 11.9773 15.0607L8.6743 11.7576C8.77459 11.6052 8.86165 11.4445 8.93454 11.2772L12.658 2.62924L21.1458 11.117L12.4978 14.8405ZM16.9319 4.34081L19.4342 6.84311C19.766 6.51128 19.9524 6.06123 19.9524 5.59196C19.9524 5.12269 19.766 4.67264 19.4342 4.34081C19.1024 4.00898 18.6523 3.82257 18.183 3.82257C17.7138 3.82257 17.2637 4.00898 16.9319 4.34081Z"></path></g><defs><clipPath id="clip0_2090_12721"><rect width="22.6482" height="22.6482" transform="translate(0.646423 0.690613)"></rect></clipPath></defs></svg>