<svg width="30" height="30" viewBox="0 0 25 24" fill="#575757" stroke="#575757" xmlns="http://www.w3.org/2000/svg"><path d="M19.1293 5.4445L13.3794 2.31088C13.0853 2.1506 12.717 2.25907 12.5567 2.55318C12.396 2.84796 12.5041 3.21692 12.7983 3.3772L18.5482 6.51082C19.2808 6.91006 19.5515 7.82923 19.1526 8.56115L13.0486 19.7615C12.6497 20.4934 11.7305 20.7641 10.9979 20.3649L5.58242 17.4135C4.8505 17.0146 4.57845 16.0947 4.97734 15.3628L11.13 4.07315C11.2903 3.77904 11.1829 3.41044 10.8881 3.24979C10.5933 3.08914 10.2253 3.19864 10.065 3.49275L3.91236 14.7824C3.19327 16.1019 3.68115 17.7604 5.00129 18.4798L10.4168 21.4312C11.737 22.1507 13.3951 21.6617 14.1142 20.3423L20.2182 9.14191C20.9373 7.82244 20.4494 6.16395 19.1293 5.4445ZM12.9595 10.4219C13.2832 10.5983 13.4016 11.0043 13.2259 11.3266C13.0649 11.622 13.1744 11.99 13.4679 12.1499C13.7626 12.3106 14.1306 12.2028 14.2916 11.9073C14.6857 11.1841 14.5476 10.3189 14.0204 9.7425L14.1851 9.44033C14.3457 9.14555 14.2369 8.77794 13.9428 8.61765C13.6487 8.45737 13.2808 8.56516 13.1201 8.85994L12.9554 9.16211C12.1853 9.03154 11.3847 9.38514 10.9906 10.1083C10.4943 11.0189 10.573 12.531 11.4842 13.0276C12.2202 13.6223 11.8132 14.3199 11.6375 14.6422C11.4619 14.9645 11.0565 15.085 10.7329 14.9087C10.4106 14.733 10.2922 14.3271 10.4678 14.0048C10.6281 13.7106 10.5176 13.3413 10.2248 13.1817C9.93073 13.0214 9.56245 13.1299 9.40216 13.424C9.00803 14.1472 9.14482 15.0116 9.67198 15.5881L9.50766 15.8896C9.34665 16.185 9.45511 16.5533 9.74922 16.7136C10.0433 16.8739 10.4116 16.7654 10.5726 16.47L10.7369 16.1685C11.5071 16.2991 12.3091 15.9462 12.7032 15.223C13.1994 14.3125 12.9762 12.4586 12.065 11.962C11.2967 11.5433 11.8135 10.7673 12.0186 10.5946C12.2237 10.4219 12.6372 10.2463 12.9595 10.4219ZM18.1664 8.3764C18.327 8.08162 18.2179 7.71296 17.9238 7.55268L12.5955 4.64888C12.3014 4.48859 11.9325 4.59669 11.7718 4.89147C11.6112 5.18626 11.721 5.55357 12.0152 5.71385L17.3434 8.61765C17.6375 8.77794 18.0057 8.67118 18.1664 8.3764Z" stroke-width="0.4"></path></svg>