<svg width="30" height="30" viewBox="0 0 25 24" fill="#575757" stroke="#575757" xmlns="http://www.w3.org/2000/svg"><path d="M19.6682 5.21875C19.464 4.97779 19.1702 4.8299 18.8411 4.80284C18.4714 4.77244 18.0861 4.89763 17.7781 5.14702L16.4707 6.04108L16.4194 6.08049C16.1262 6.32879 15.9882 6.70016 16.0224 7.08841L12.937 9.62782L12.4916 9.17347C12.9459 7.85757 13.0508 6.06355 11.9869 4.80906C11.2079 3.89045 10.1603 3.33352 9.03732 3.24119C8.59094 3.20448 8.14363 3.24278 7.70766 3.35478C7.508 3.4061 7.34625 3.55218 7.27518 3.74576C7.20411 3.93935 7.23271 4.15519 7.35139 4.32369L8.74002 6.29084L8.56687 7.46837L7.27507 7.50916L5.57375 5.83045C5.42693 5.68542 5.21846 5.62193 5.01583 5.66084C4.81321 5.69955 4.64268 5.83526 4.55943 6.02386C3.94185 7.42405 4.25394 9.01245 5.41576 10.3815C6.04163 11.12 6.9939 11.5613 8.16913 11.6579C8.25516 11.665 8.34217 11.6677 8.42916 11.6707C8.38251 11.705 8.33569 11.7389 8.29105 11.7768L4.49197 14.9984C3.4372 15.8929 3.30683 17.4785 4.20133 18.5332L4.74177 19.1705C5.17495 19.6815 5.78139 19.9931 6.44899 20.048C7.11659 20.1029 7.76578 19.8946 8.27661 19.4612L12.0755 16.2393C12.286 16.061 12.4571 15.8551 12.5917 15.631L15.4135 19.4901C15.4226 19.5024 15.4321 19.5141 15.4416 19.5258C15.7624 19.9039 16.2711 20.1395 16.8747 20.1891C17.6082 20.2494 18.3763 20.0221 18.8793 19.5958C19.7634 18.846 20.1638 17.1289 19.3712 16.1937C19.361 16.1822 19.3513 16.1709 19.3406 16.1606L15.1237 11.8592L17.9646 9.37726C18.0357 9.39548 18.1072 9.40745 18.1799 9.41342C18.4936 9.43922 18.7928 9.34575 19.0227 9.15096L20.1656 7.96299C20.4237 7.73424 20.5981 7.43339 20.6594 7.11212C20.7308 6.73591 20.6376 6.36209 20.4038 6.08661L19.6682 5.21875ZM11.2646 15.2831L7.46566 18.5049C7.21025 18.7215 6.88565 18.8257 6.55175 18.7982C6.21785 18.7708 5.91484 18.615 5.69803 18.3596L5.15758 17.7223C4.71045 17.1948 4.77563 16.402 5.30289 15.9551L9.10201 12.733C9.35741 12.5164 9.68201 12.4123 10.0157 12.4397C10.1138 12.4478 10.2088 12.4686 10.3001 12.4977L11.7022 14.4154C11.6793 14.74 11.5319 15.0563 11.2646 15.2831ZM18.0679 18.6395C17.8174 18.8519 17.3791 18.9723 16.9771 18.9393C16.7248 18.9185 16.5143 18.8398 16.4088 18.7271L10.4127 10.5269C10.2624 10.3214 10.0026 10.2271 9.75598 10.2884C9.27648 10.4071 8.76328 10.4483 8.2717 10.4079C7.44725 10.3401 6.77254 10.0426 6.37206 9.57016C6.00959 9.14275 5.51233 8.39851 5.50105 7.52058L6.58535 8.59054C6.70753 8.71131 6.87352 8.77633 7.04571 8.77099L9.13038 8.70501C9.43378 8.69535 9.68677 8.46995 9.73076 8.1695L10.0167 6.22511C10.04 6.06577 10.0014 5.90384 9.90856 5.77248L9.00905 4.49815C9.77033 4.58172 10.4856 4.97795 11.03 5.61996C11.779 6.50339 11.6356 8.03085 11.1852 9.07632C11.0844 9.31004 11.135 9.58158 11.3132 9.76337L18.4249 17.0185C18.6776 17.3452 18.5379 18.2407 18.0679 18.6395ZM19.3275 7.03051L18.2482 8.15219C18.2383 8.1474 18.2273 8.14104 18.2154 8.13251L17.8118 7.84558L14.2449 10.9622L13.8179 10.5267L17.509 7.48851L17.292 7.04391C17.2858 7.0304 17.2809 7.01846 17.2782 7.00817L18.5094 6.16593L18.5609 6.12655C18.6283 6.0698 18.6923 6.05347 18.7314 6.05311L19.4284 6.87502C19.4233 6.90606 19.3976 6.97084 19.3275 7.03051Z" stroke-width="0.2"></path></svg>