<svg width="30" height="30" viewBox="0 0 25 24" fill="#575757" xmlns="http://www.w3.org/2000/svg"><path d="M17.6311 13.0866C16.9969 12.4524 15.8194 12.4524 15.0947 13.0866L14.1889 13.9925C14.0077 14.1737 13.7359 14.1737 13.5547 13.9925L9.3877 9.91606C9.20647 9.73483 9.20647 9.46312 9.3877 9.28189L10.2936 8.37602C10.6559 8.0137 10.8371 7.56076 10.8371 7.10783C10.8371 6.65489 10.6559 6.20196 10.2936 5.83964L7.84778 3.30327C7.21361 2.66909 6.03604 2.66909 5.31141 3.30327L4.40554 4.20914C2.14086 6.47382 2.14086 10.1879 4.40554 12.362L11.0184 18.9748C13.2831 21.2395 16.9066 21.2395 19.1712 18.9748L20.0771 18.069C20.8017 17.3443 20.8017 16.2572 20.0771 15.5326L17.6311 13.0866ZM17.9934 17.8877C16.4534 19.4278 13.917 19.4278 12.2865 17.8877L5.6736 11.1843C4.13355 9.64423 4.13355 7.10786 5.6736 5.47729L6.57947 4.57142L9.11584 7.1078L8.20997 8.01367C7.3041 8.91954 7.3041 10.2783 8.20997 11.1842L12.377 15.3512C13.1922 16.1665 14.7323 16.1665 15.5475 15.3512L16.4534 14.4453L18.9898 16.9817L17.9934 17.8877Z"></path><path d="M18.99 11.0031H20.8017C20.8017 6.56434 17.1782 2.94086 12.7394 2.94086V4.7526C16.1818 4.7526 18.99 7.5607 18.99 11.0031Z"></path><path d="M12.7394 6.5643V8.37604C14.1888 8.37604 15.3664 9.55361 15.3664 11.003H17.1781C17.2688 8.55712 15.2758 6.56427 12.7394 6.56427L12.7394 6.5643Z"></path></svg>