<svg width="30" height="30" viewBox="0 0 25 24" fill="#575757" stroke="#575757" xmlns="http://www.w3.org/2000/svg"><path d="M3.11041 5.85449V6.97186H13.7443V15.3521H10.2988C10.0496 14.3919 9.18382 13.676 8.14753 13.676C7.11125 13.676 6.2455 14.3919 5.99626 15.3521H5.34913V12.5587H4.22977V16.4695H5.99626C6.2455 17.4297 7.11125 18.1455 8.14753 18.1455C9.18382 18.1455 10.0496 17.4297 10.2988 16.4695H14.9511C15.2004 17.4297 16.0661 18.1455 17.1024 18.1455C18.1387 18.1455 19.0045 17.4297 19.2537 16.4695H21.0202V11.9127L20.9852 11.8254L19.8658 8.47332L19.7434 8.08922H14.8637V5.85449H3.11041ZM3.67009 8.08922V9.20659H8.70721V8.08922H3.67009ZM14.8637 9.20659H18.9389L19.9008 12.0698V15.3521H19.2537C19.0045 14.3919 18.1387 13.676 17.1024 13.676C16.0661 13.676 15.2004 14.3919 14.9511 15.3521H14.8637V9.20659ZM4.22977 10.324V11.4413H7.58785V10.324H4.22977ZM8.14753 14.7934C8.7728 14.7934 9.26689 15.2866 9.26689 15.9108C9.26689 16.5349 8.7728 17.0281 8.14753 17.0281C7.52227 17.0281 7.02817 16.5349 7.02817 15.9108C7.02817 15.2866 7.52227 14.7934 8.14753 14.7934ZM17.1024 14.7934C17.7277 14.7934 18.2218 15.2866 18.2218 15.9108C18.2218 16.5349 17.7277 17.0281 17.1024 17.0281C16.4771 17.0281 15.9831 16.5349 15.9831 15.9108C15.9831 15.2866 16.4771 14.7934 17.1024 14.7934Z" stroke-width="0.4"></path></svg>