<svg width="30" height="30" viewBox="0 0 25 24" fill="#575757" xmlns="http://www.w3.org/2000/svg"><path d="M5.06012 14.1983L7.72918 14.7814L7.14613 17.4504C6.93177 18.4318 7.55548 19.4041 8.53681 19.6185L16.544 21.3676C17.5253 21.582 18.4977 20.9583 18.7121 19.977L20.4612 11.9698C20.6756 10.9885 20.0519 10.0161 19.0705 9.80172L16.4015 9.21867L16.9845 6.54961C17.1989 5.56829 16.5752 4.59591 15.5938 4.38154L7.58666 2.6324C6.60534 2.41803 5.63296 3.04175 5.41859 4.02307L3.66945 12.0303C3.45508 13.0116 4.0788 13.984 5.06012 14.1983ZM18.6818 11.5811L16.93 19.5877L8.92551 17.8391L9.50855 15.1701L13.0673 15.9475C14.0486 16.1618 15.021 15.5381 15.2354 14.5568L16.0128 10.998L18.6818 11.5811ZM6.22622 8.8602L10.6747 9.83195L11.6464 5.38352L15.2051 6.16092L13.4533 14.1675L5.44882 12.419L6.22622 8.8602Z"></path></svg>