<svg width="30" height="30" viewBox="0 0 25 24" fill="#575757" stroke="#575757" xmlns="http://www.w3.org/2000/svg"><path stroke="none" d="M11.4002 10.5594C10.6058 11.3623 10.6127 12.6617 11.4156 13.4561C12.2185 14.2505 13.5179 14.2436 14.3123 13.4407C15.1067 12.6379 15.0998 11.3384 14.2969 10.544C13.494 9.74964 12.1946 9.75658 11.4002 10.5594ZM13.6276 12.7632C13.2067 13.1885 12.5184 13.1922 12.0931 12.7714C11.6678 12.3506 11.6641 11.6622 12.0849 11.2369C12.5058 10.8116 13.1941 10.808 13.6194 11.2288C14.0447 11.6495 14.0483 12.338 13.6276 12.7632Z"></path><path stroke="none" d="M12.8337 7.7518C11.8572 7.75698 10.904 7.83153 10.0029 7.96957C10.1618 7.2976 10.3627 6.67425 10.6029 6.11722C11.2163 4.69479 12.0218 3.87662 12.8131 3.87242C13.6187 3.86814 14.4435 4.70199 15.0763 6.16016C15.1821 6.4042 15.4658 6.5162 15.7098 6.41032C15.9539 6.30441 16.0659 6.02083 15.9599 5.7768C15.1548 3.92105 14.0354 2.90265 12.808 2.9091C11.5989 2.91555 10.5015 3.91931 9.71832 5.73578C9.40792 6.45563 9.15844 7.27438 8.975 8.15968C8.09169 8.35252 7.27564 8.61068 6.55909 8.92874C4.75125 9.73119 3.75902 10.839 3.76545 12.0483C3.77183 13.2575 4.77573 14.3548 6.59209 15.1379C7.31198 15.4484 8.13073 15.6978 9.016 15.8812C9.2088 16.7646 9.46697 17.5806 9.78502 18.2972C10.5875 20.1052 11.6953 21.0973 12.9046 21.0909C13.5633 21.0874 14.1886 20.788 14.7483 20.2223C15.2159 19.7497 15.6377 19.091 15.9942 18.2642C16.7227 16.5748 17.117 14.342 17.1044 11.9775C17.0993 11.0037 17.0258 10.0547 16.8861 9.14647C17.5583 9.30545 18.1819 9.50634 18.7391 9.74662C20.1615 10.36 20.9797 11.1655 20.9839 11.9568C20.9882 12.7623 20.1543 13.5872 18.6961 14.22C18.4521 14.3259 18.3402 14.6095 18.446 14.8535C18.5519 15.0976 18.8355 15.2095 19.0795 15.1037C19.9383 14.731 20.6176 14.2913 21.0991 13.8045C21.6582 13.2394 21.9507 12.611 21.9472 11.9517C21.9407 10.7425 20.9368 9.64517 19.1205 8.86197C17.431 8.13359 15.1983 7.73928 12.8337 7.7518ZM6.97347 14.2534C5.55107 13.6401 4.73287 12.8345 4.7287 12.0432C4.72443 11.2519 5.5341 10.4376 6.94983 9.80926C7.50428 9.56318 8.1255 9.35567 8.79575 9.18959C8.66728 10.0922 8.60293 11.0461 8.60811 12.0226C8.6133 12.9991 8.68781 13.9523 8.82586 14.8534C8.15388 14.6944 7.5305 14.4936 6.97347 14.2534ZM15.1097 17.8828C14.4963 19.3052 13.6908 20.1234 12.8994 20.1276C12.1081 20.1318 11.2939 19.3222 10.6655 17.9064C10.4194 17.352 10.2119 16.7307 10.0458 16.0605C10.9484 16.189 11.9023 16.2534 12.8789 16.2482C13.8526 16.243 14.8017 16.1695 15.7098 16.0298C15.5508 16.7021 15.3499 17.3256 15.1097 17.8828ZM16.1412 11.9826C16.1468 13.0401 16.0676 14.0663 15.911 15.0205C14.9457 15.1902 13.9258 15.2793 12.8738 15.2849C11.8156 15.2905 10.7888 15.2112 9.83412 15.0544C9.66719 14.1014 9.57698 13.0756 9.5714 12.0175C9.56578 10.9594 9.64505 9.93255 9.80189 8.97784C10.7549 8.81087 11.7808 8.7207 12.8389 8.71505C13.8964 8.70943 14.9226 8.78864 15.8768 8.94528C16.0465 9.91058 16.1356 10.9305 16.1412 11.9826Z"></path><path d="M11.4002 10.5594C10.6058 11.3623 10.6127 12.6617 11.4156 13.4561C12.2185 14.2505 13.5179 14.2436 14.3123 13.4407C15.1067 12.6379 15.0998 11.3384 14.2969 10.544C13.494 9.74964 12.1946 9.75658 11.4002 10.5594ZM13.6276 12.7632C13.2067 13.1885 12.5184 13.1922 12.0931 12.7714C11.6678 12.3506 11.6641 11.6622 12.0849 11.2369C12.5058 10.8116 13.1941 10.808 13.6194 11.2288C14.0447 11.6495 14.0483 12.338 13.6276 12.7632Z" stroke-width="0.7"></path><path d="M12.8337 7.7518C11.8572 7.75698 10.904 7.83153 10.0029 7.96957C10.1618 7.2976 10.3627 6.67425 10.6029 6.11722C11.2163 4.69479 12.0218 3.87662 12.8131 3.87242C13.6187 3.86814 14.4435 4.70199 15.0763 6.16016C15.1821 6.4042 15.4658 6.5162 15.7098 6.41032C15.9539 6.30441 16.0659 6.02083 15.9599 5.7768C15.1548 3.92105 14.0354 2.90265 12.808 2.9091C11.5989 2.91555 10.5015 3.91931 9.71832 5.73578C9.40792 6.45563 9.15844 7.27438 8.975 8.15968C8.09169 8.35252 7.27564 8.61068 6.55909 8.92874C4.75125 9.73119 3.75902 10.839 3.76545 12.0483C3.77183 13.2575 4.77573 14.3548 6.59209 15.1379C7.31198 15.4484 8.13073 15.6978 9.016 15.8812C9.2088 16.7646 9.46697 17.5806 9.78502 18.2972C10.5875 20.1052 11.6953 21.0973 12.9046 21.0909C13.5633 21.0874 14.1886 20.788 14.7483 20.2223C15.2159 19.7497 15.6377 19.091 15.9942 18.2642C16.7227 16.5748 17.117 14.342 17.1044 11.9775C17.0993 11.0037 17.0258 10.0547 16.8861 9.14647C17.5583 9.30545 18.1819 9.50634 18.7391 9.74662C20.1615 10.36 20.9797 11.1655 20.9839 11.9568C20.9882 12.7623 20.1543 13.5872 18.6961 14.22C18.4521 14.3259 18.3402 14.6095 18.446 14.8535C18.5519 15.0976 18.8355 15.2095 19.0795 15.1037C19.9383 14.731 20.6176 14.2913 21.0991 13.8045C21.6582 13.2394 21.9507 12.611 21.9472 11.9517C21.9407 10.7425 20.9368 9.64517 19.1205 8.86197C17.431 8.13359 15.1983 7.73928 12.8337 7.7518ZM6.97347 14.2534C5.55107 13.6401 4.73287 12.8345 4.7287 12.0432C4.72443 11.2519 5.5341 10.4376 6.94983 9.80926C7.50428 9.56318 8.1255 9.35567 8.79575 9.18959C8.66728 10.0922 8.60293 11.0461 8.60811 12.0226C8.6133 12.9991 8.68781 13.9523 8.82586 14.8534C8.15388 14.6944 7.5305 14.4936 6.97347 14.2534ZM15.1097 17.8828C14.4963 19.3052 13.6908 20.1234 12.8994 20.1276C12.1081 20.1318 11.2939 19.3222 10.6655 17.9064C10.4194 17.352 10.2119 16.7307 10.0458 16.0605C10.9484 16.189 11.9023 16.2534 12.8789 16.2482C13.8526 16.243 14.8017 16.1695 15.7098 16.0298C15.5508 16.7021 15.3499 17.3256 15.1097 17.8828ZM16.1412 11.9826C16.1468 13.0401 16.0676 14.0663 15.911 15.0205C14.9457 15.1902 13.9258 15.2793 12.8738 15.2849C11.8156 15.2905 10.7888 15.2112 9.83412 15.0544C9.66719 14.1014 9.57698 13.0756 9.5714 12.0175C9.56578 10.9594 9.64505 9.93255 9.80189 8.97784C10.7549 8.81087 11.7808 8.7207 12.8389 8.71505C13.8964 8.70943 14.9226 8.78864 15.8768 8.94528C16.0465 9.91058 16.1356 10.9305 16.1412 11.9826Z" stroke-width="0.7"></path></svg>