<svg width="30" height="30" viewBox="0 0 25 24" fill="#575757" stroke="#575757" xmlns="http://www.w3.org/2000/svg"><path stroke="none" d="M16.1569 14.7724L15.6798 14.5555L16.9977 11.6572C17.6372 11.8127 18.3097 11.7422 18.8996 11.4579C19.4896 11.1735 19.9601 10.6931 20.2303 10.0991C20.2537 10.0476 20.2721 10 20.2873 9.95861C20.3053 9.92856 20.3217 9.89754 20.3363 9.86569L21.7618 6.73078C21.8559 6.5239 21.8831 6.29268 21.8396 6.0689C21.7962 5.84512 21.6841 5.63977 21.5189 5.48106C21.3537 5.32235 21.1435 5.21808 20.9171 5.18257C20.6907 5.14707 20.4593 5.18207 20.2546 5.28277C20.2124 5.12415 20.1353 4.97664 20.0287 4.85098C19.9222 4.72532 19.789 4.62468 19.6388 4.55637C19.4885 4.48807 19.3251 4.45383 19.1604 4.45614C18.9957 4.45845 18.8338 4.49725 18.6865 4.56973C18.6279 4.34931 18.5021 4.1519 18.3266 4.00463C18.151 3.85736 17.9343 3.76746 17.7061 3.74728C17.4779 3.72709 17.2495 3.77763 17.0523 3.89193C16.8551 4.00622 16.6987 4.17868 16.6046 4.38559L15.1791 7.5205C15.1649 7.55229 15.1524 7.58481 15.1416 7.61791C15.1205 7.65619 15.0968 7.70155 15.073 7.75387C14.803 8.34802 14.7503 9.01851 14.9239 9.65005C15.0976 10.2816 15.4867 10.8347 16.0244 11.2143L14.7064 14.1127L14.2295 13.8958C13.984 13.7842 13.7045 13.7736 13.4526 13.8665C13.2006 13.9594 12.9967 14.1481 12.8855 14.3913L10.5754 19.4717C10.3705 19.9246 10.355 20.441 10.5324 20.9077C10.7098 21.3744 11.0655 21.7534 11.5217 21.9617L11.8582 22.1147C12.3149 22.3215 12.8344 22.3405 13.3026 22.1674C13.7708 21.9942 14.1497 21.6431 14.3562 21.191L16.6663 16.1106C16.7765 15.8671 16.7847 15.5895 16.6892 15.3386C16.5937 15.0877 16.4023 14.8841 16.1569 14.7724ZM16.6195 8.23639C16.7655 8.33058 16.9318 8.44125 17.1176 8.55423L19.1458 5.54124C19.148 5.53629 19.1512 5.53184 19.1551 5.52814C19.1591 5.52443 19.1638 5.52155 19.1689 5.51967C19.174 5.51778 19.1794 5.51692 19.1849 5.51714C19.1903 5.51736 19.1957 5.51866 19.2007 5.52095C19.2105 5.52564 19.2182 5.53397 19.2221 5.54416C19.2259 5.55436 19.2256 5.56561 19.2212 5.57553L18.2839 9.08458C18.4912 9.14977 18.6835 9.20271 18.8506 9.25091L20.7138 6.25423C20.7183 6.24431 20.7266 6.2366 20.7369 6.2328C20.7472 6.229 20.7586 6.22942 20.7686 6.23398C20.7786 6.23853 20.7864 6.24684 20.7903 6.25708C20.7942 6.26732 20.7938 6.27865 20.7893 6.28857L19.368 9.41432C19.3667 9.41709 19.3636 9.42105 19.3599 9.42622L19.3218 9.48293L19.2993 9.54832C19.2832 9.59427 19.2723 9.62478 19.2577 9.65685C19.0657 10.079 18.7125 10.4069 18.2756 10.5685C17.8387 10.73 17.3541 10.712 16.9282 10.5184C16.5023 10.3247 16.1701 9.9713 16.0047 9.53587C15.8393 9.10044 15.8542 8.61867 16.0462 8.19653C16.0607 8.1647 16.0768 8.13538 16.102 8.09097L16.1341 8.03428L16.1514 7.97191C16.1534 7.96407 16.1548 7.95892 16.156 7.95496L17.5778 4.82825C17.5823 4.81834 17.5906 4.81064 17.6009 4.80685C17.6111 4.80306 17.6225 4.80348 17.6325 4.80802C17.6425 4.81257 17.6503 4.82087 17.6542 4.83109C17.6581 4.84131 17.6577 4.85262 17.6532 4.86253L16.6195 8.23639ZM13.3833 20.7487C13.2923 20.9442 13.1274 21.0959 12.9242 21.171C12.721 21.2462 12.4957 21.2388 12.2968 21.1504L11.9603 20.9974C11.763 20.9055 11.6093 20.7405 11.5323 20.5379C11.4553 20.3353 11.4611 20.1113 11.5485 19.9141L13.8371 14.8811L15.672 15.7155L13.3833 20.7487ZM15.3874 3.73871C15.4691 3.55554 15.4881 3.35044 15.4415 3.15468C15.3745 2.89668 15.234 2.66296 15.037 2.48168C14.8304 2.2859 14.5915 2.12697 14.3309 2.01195C13.6096 1.7107 12.814 1.63663 12.0521 1.79977C11.2901 1.96292 10.5986 2.35538 10.0713 2.92397C9.65666 3.39954 9.32054 3.93767 9.07532 4.51851C8.97561 4.73778 8.89087 4.93868 8.81589 5.10358L5.81495 11.6886C5.70442 11.9323 5.69594 12.2103 5.79138 12.4615C5.88682 12.7128 6.07837 12.9167 6.324 13.0287L6.55346 13.133L4.8543 16.8698C4.6495 17.3227 4.63408 17.839 4.8114 18.3056C4.98873 18.7723 5.34436 19.1513 5.80042 19.3597L6.13702 19.5127C6.59382 19.7194 7.11316 19.7382 7.58134 19.565C8.04952 19.3919 8.42841 19.0409 8.63505 18.589L15.3874 3.73871ZM7.66173 18.147C7.57056 18.3424 7.40564 18.494 7.20245 18.5691C6.99925 18.6442 6.774 18.6369 6.57511 18.5486L6.2385 18.3956C6.04125 18.3036 5.88763 18.1386 5.81065 17.9361C5.73367 17.7335 5.73948 17.5096 5.8268 17.3123L7.52597 13.5755L9.36101 14.41L7.66173 18.147ZM9.79939 13.4459L6.80787 12.0856L9.78886 5.546C9.87289 5.36121 9.95598 5.16363 10.0483 4.96064C10.2482 4.48113 10.5225 4.03619 10.8614 3.64198C11.2374 3.2385 11.7285 2.95883 12.2697 2.83996C12.8109 2.72109 13.3767 2.76862 13.8924 2.97627C14.0726 3.05027 14.2329 3.16563 14.3601 3.31288C14.3706 3.32636 14.38 3.34063 14.3883 3.35556L9.79939 13.4459Z"></path><path d="M5.81495 11.6886L8.81589 5.10358C8.89087 4.93868 8.97561 4.73778 9.07532 4.51851C9.32054 3.93767 9.65666 3.39954 10.0713 2.92397C10.5986 2.35538 11.2901 1.96292 12.0521 1.79977C12.814 1.63663 13.6096 1.7107 14.3309 2.01195C14.5915 2.12697 14.8304 2.2859 15.037 2.48168C15.234 2.66296 15.3745 2.89668 15.4415 3.15468C15.4881 3.35044 15.4691 3.55554 15.3874 3.73871L8.63505 18.589C8.42841 19.0409 8.04952 19.3919 7.58134 19.565C7.11316 19.7382 6.59382 19.7194 6.13702 19.5127L5.80042 19.3597C5.34436 19.1513 4.98873 18.7723 4.8114 18.3056C4.63408 17.839 4.6495 17.3227 4.8543 16.8698L6.55346 13.133L6.324 13.0287C6.07837 12.9167 5.88682 12.7128 5.79138 12.4615C5.69594 12.2103 5.70442 11.9323 5.81495 11.6886ZM5.81495 11.6886L6.30137 11.9098M16.1569 14.7724L15.6798 14.5555L16.9977 11.6572C17.6372 11.8127 18.3097 11.7422 18.8996 11.4579C19.4896 11.1735 19.9601 10.6931 20.2303 10.0991C20.2537 10.0476 20.2721 10 20.2873 9.95861C20.3053 9.92856 20.3217 9.89754 20.3363 9.86569L21.7618 6.73078C21.8559 6.5239 21.8831 6.29268 21.8396 6.0689C21.7962 5.84512 21.6841 5.63977 21.5189 5.48106C21.3537 5.32235 21.1435 5.21808 20.9171 5.18257C20.6907 5.14707 20.4593 5.18207 20.2546 5.28277C20.2124 5.12415 20.1353 4.97664 20.0287 4.85098C19.9222 4.72532 19.789 4.62468 19.6388 4.55637C19.4885 4.48807 19.3251 4.45383 19.1604 4.45614C18.9957 4.45845 18.8338 4.49725 18.6865 4.56973C18.6279 4.34931 18.5021 4.1519 18.3266 4.00463C18.151 3.85736 17.9343 3.76746 17.7061 3.74728C17.4779 3.72709 17.2495 3.77763 17.0523 3.89193C16.8551 4.00622 16.6987 4.17868 16.6046 4.38559L15.1791 7.5205C15.1649 7.55229 15.1524 7.58481 15.1416 7.61791C15.1205 7.65619 15.0968 7.70155 15.073 7.75387C14.803 8.34802 14.7503 9.01851 14.9239 9.65005C15.0976 10.2816 15.4867 10.8347 16.0244 11.2143L14.7064 14.1127L14.2295 13.8958C13.984 13.7842 13.7045 13.7736 13.4526 13.8665C13.2006 13.9594 12.9967 14.1481 12.8855 14.3913L10.5754 19.4717C10.3705 19.9246 10.355 20.441 10.5324 20.9077C10.7098 21.3744 11.0655 21.7534 11.5217 21.9617L11.8582 22.1147C12.3149 22.3215 12.8344 22.3405 13.3026 22.1674C13.7708 21.9942 14.1497 21.6431 14.3562 21.191L16.6663 16.1106C16.7765 15.8671 16.7847 15.5895 16.6892 15.3386C16.5937 15.0877 16.4023 14.8841 16.1569 14.7724ZM16.6195 8.23639C16.7655 8.33058 16.9318 8.44125 17.1176 8.55423L19.1458 5.54124C19.148 5.53629 19.1512 5.53184 19.1551 5.52814C19.1591 5.52443 19.1638 5.52155 19.1689 5.51967C19.174 5.51778 19.1794 5.51692 19.1849 5.51714C19.1903 5.51736 19.1957 5.51866 19.2007 5.52095C19.2105 5.52564 19.2182 5.53397 19.2221 5.54416C19.2259 5.55436 19.2256 5.56561 19.2212 5.57553L18.2839 9.08458C18.4912 9.14977 18.6835 9.20271 18.8506 9.25091L20.7138 6.25423C20.7183 6.24431 20.7266 6.2366 20.7369 6.2328C20.7472 6.229 20.7586 6.22942 20.7686 6.23398C20.7786 6.23853 20.7864 6.24684 20.7903 6.25708C20.7942 6.26732 20.7938 6.27865 20.7893 6.28857L19.368 9.41432C19.3667 9.41709 19.3636 9.42105 19.3599 9.42622L19.3218 9.48293L19.2993 9.54832C19.2832 9.59427 19.2723 9.62478 19.2577 9.65685C19.0657 10.079 18.7125 10.4069 18.2756 10.5685C17.8387 10.73 17.3541 10.712 16.9282 10.5184C16.5023 10.3247 16.1701 9.9713 16.0047 9.53587C15.8393 9.10044 15.8542 8.61867 16.0462 8.19653C16.0607 8.1647 16.0768 8.13538 16.102 8.09097L16.1341 8.03428L16.1514 7.97191C16.1534 7.96407 16.1548 7.95892 16.156 7.95496L17.5778 4.82825C17.5823 4.81834 17.5906 4.81064 17.6009 4.80685C17.6111 4.80306 17.6225 4.80348 17.6325 4.80802C17.6425 4.81257 17.6503 4.82087 17.6542 4.83109C17.6581 4.84131 17.6577 4.85262 17.6532 4.86253L16.6195 8.23639ZM13.3833 20.7487C13.2923 20.9442 13.1274 21.0959 12.9242 21.171C12.721 21.2462 12.4957 21.2388 12.2968 21.1504L11.9603 20.9974C11.763 20.9055 11.6093 20.7405 11.5323 20.5379C11.4553 20.3353 11.4611 20.1113 11.5485 19.9141L13.8371 14.8811L15.672 15.7155L13.3833 20.7487ZM7.66173 18.147C7.57056 18.3424 7.40564 18.494 7.20245 18.5691C6.99925 18.6442 6.774 18.6369 6.57511 18.5486L6.2385 18.3956C6.04125 18.3036 5.88763 18.1386 5.81065 17.9361C5.73367 17.7335 5.73948 17.5096 5.8268 17.3123L7.52597 13.5755L9.36101 14.41L7.66173 18.147ZM9.79939 13.4459L6.80787 12.0856L9.78886 5.546C9.87289 5.36121 9.95598 5.16363 10.0483 4.96064C10.2482 4.48113 10.5225 4.03619 10.8614 3.64198C11.2374 3.2385 11.7285 2.95883 12.2697 2.83996C12.8109 2.72109 13.3767 2.76862 13.8924 2.97627C14.0726 3.05027 14.2329 3.16563 14.3601 3.31288C14.3706 3.32636 14.38 3.34063 14.3883 3.35556L9.79939 13.4459Z" fill="none" stroke-width="0.1"></path></svg>