<svg width="30" height="30" viewBox="0 0 25 24" fill="#575757" xmlns="http://www.w3.org/2000/svg"><path d="M15.5544 20.4796H10.1583C9.85159 20.4796 9.55748 20.3578 9.34063 20.1409C9.12378 19.9241 9.00195 19.63 9.00195 19.3233V15.8544H5.53302C5.22635 15.8544 4.93224 15.7325 4.71538 15.5157C4.49853 15.2988 4.37671 15.0047 4.37671 14.6981V9.30194C4.37671 8.99527 4.49853 8.70116 4.71538 8.48431C4.93224 8.26746 5.22635 8.14563 5.53302 8.14563H9.00195V4.6767C9.00195 4.37002 9.12378 4.07591 9.34063 3.85906C9.55748 3.64221 9.85159 3.52039 10.1583 3.52039H15.5544C15.8611 3.52039 16.1552 3.64221 16.372 3.85906C16.5889 4.07591 16.7107 4.37002 16.7107 4.6767V8.14563H20.1796C20.4863 8.14563 20.7804 8.26746 20.9973 8.48431C21.2141 8.70116 21.3359 8.99527 21.3359 9.30194V14.6981C21.3359 15.0047 21.2141 15.2988 20.9973 15.5157C20.7804 15.7325 20.4863 15.8544 20.1796 15.8544H16.7107V19.3233C16.7107 19.63 16.5889 19.9241 16.372 20.1409C16.1552 20.3578 15.8611 20.4796 15.5544 20.4796V20.4796ZM10.5437 18.9379H15.1689V14.3126H19.7942V9.68738H15.1689V5.06213H10.5437V9.68738H5.91846V14.3126H10.5437V18.9379Z" stroke-width="0.468006"></path></svg>