<svg width="30" height="30" viewBox="0 0 25 24" fill="#575757" stroke="#575757" xmlns="http://www.w3.org/2000/svg"><path fill-rule="evenodd" clip-rule="evenodd" d="M13.4455 4.72714C13.4455 4.57075 13.3833 4.42076 13.2727 4.31017C13.1621 4.19958 13.0121 4.13745 12.8557 4.13745C12.6993 4.13745 12.5493 4.19958 12.4387 4.31017C12.3281 4.42076 12.2659 4.57075 12.2659 4.72714V6.10309H10.7136C10.4374 6.10297 10.1675 6.18598 9.93906 6.34132L8.60616 7.24866C8.57344 7.27082 8.5348 7.2826 8.49528 7.28247H5.2696C5.11318 7.28247 4.96317 7.3446 4.85257 7.45519C4.74196 7.56578 4.67983 7.71577 4.67983 7.87216C4.67983 8.02856 4.74196 8.17855 4.85257 8.28914C4.96317 8.39973 5.11318 8.46185 5.2696 8.46185H6.5097L3.862 14.5003C3.81199 14.6181 3.80104 14.7489 3.83076 14.8734C3.86048 14.9979 3.9293 15.1096 4.02714 15.1922C4.09005 15.2425 4.15375 15.2905 4.27013 15.366C4.41639 15.4611 4.62557 15.5845 4.89293 15.7064C5.42766 15.9509 6.19988 16.1939 7.15453 16.1939C7.93463 16.1954 8.70593 16.0291 9.41612 15.7064C9.68349 15.5845 9.89266 15.4611 10.0389 15.366C10.1569 15.2897 10.2198 15.2417 10.2827 15.1906C10.3813 15.109 10.4507 14.9975 10.4804 14.8729C10.51 14.7484 10.4983 14.6176 10.4471 14.5003L7.79856 8.46185H8.49528C8.7713 8.46185 9.04102 8.37851 9.26907 8.22362L10.6028 7.31628C10.6352 7.29427 10.6736 7.2825 10.7128 7.28247H12.2659V18.6832H8.73749C8.58107 18.6832 8.43106 18.7453 8.32045 18.8559C8.20985 18.9665 8.14771 19.1165 8.14771 19.2729C8.14771 19.4293 8.20985 19.5792 8.32045 19.6898C8.43106 19.8004 8.58107 19.8625 8.73749 19.8625H16.9739C17.1303 19.8625 17.2803 19.8004 17.3909 19.6898C17.5015 19.5792 17.5637 19.4293 17.5637 19.2729C17.5637 19.1165 17.5015 18.9665 17.3909 18.8559C17.2803 18.7453 17.1303 18.6832 16.9739 18.6832H13.4455V7.28247H14.9978C15.0371 7.28247 15.0764 7.29426 15.1079 7.31628L16.4423 8.22362C16.6704 8.37851 16.9401 8.46185 17.2161 8.46185H17.9128L15.2643 14.5003C15.2114 14.621 15.2004 14.756 15.2332 14.8837C15.266 15.0114 15.3406 15.1245 15.4452 15.2048C15.4546 15.2119 15.4452 15.2048 15.4468 15.2048C15.5248 15.2635 15.6062 15.3176 15.6906 15.3667C15.836 15.4548 16.0444 15.568 16.3118 15.6812C17.0228 15.9784 17.7862 16.1303 18.5569 16.1278C19.3279 16.1301 20.0915 15.978 20.8027 15.6805C21.0685 15.568 21.2777 15.4548 21.424 15.3667C21.508 15.3171 21.5894 15.263 21.6677 15.2048C21.7723 15.1245 21.847 15.0114 21.8797 14.8837C21.9125 14.756 21.9016 14.621 21.8486 14.5003L19.2017 8.46185H20.4426C20.599 8.46185 20.749 8.39973 20.8596 8.28914C20.9702 8.17855 21.0324 8.02856 21.0324 7.87216C21.0324 7.71577 20.9702 7.56578 20.8596 7.45519C20.749 7.3446 20.599 7.28247 20.4426 7.28247H17.2169C17.1776 7.28244 17.1393 7.27067 17.1068 7.24866L15.7723 6.34132C15.5441 6.18613 15.2745 6.10312 14.9985 6.10309L13.4455 6.10309V4.72714ZM5.14378 14.5144C5.76273 14.8438 6.4534 15.0152 7.15453 15.0137C7.85565 15.0152 8.54632 14.8438 9.16527 14.5144L7.15453 9.93058L5.14378 14.5144ZM16.554 14.4956C16.6185 14.527 16.6908 14.5608 16.7702 14.5946C17.187 14.77 17.7964 14.9485 18.5569 14.9485C19.2501 14.9504 19.9348 14.7956 20.5597 14.4956L18.5569 9.92979L16.554 14.4956Z" stroke-width="0.463317"></path></svg>